<?xml version="1.0" encoding="UTF-8" standalone="no"?>
<!DOCTYPE svg PUBLIC "-//W3C//DTD SVG 1.1//EN" "http://www.w3.org/Graphics/SVG/1.1/DTD/svg11.dtd">
<svg version="1.1" xmlns="http://www.w3.org/2000/svg" xmlns:xlink="http://www.w3.org/1999/xlink" preserveAspectRatio="xMidYMid meet" viewBox="0 0 640 640" width="640" height="640"><defs><path d="M311.53 69.74L316.49 69.76L321.48 69.79L326.5 69.83L331.52 69.87L336.53 69.91L341.51 69.97L346.45 70.03L351.33 70.1L356.13 70.17L360.83 70.25L365.43 70.33L369.89 70.42L374.22 70.52L378.38 70.62L382.36 70.72L386.15 70.83L389.72 70.95L393.07 71.07L396.17 71.19L399.02 71.32L401.58 71.45L403.85 71.59L405.81 71.73L407.43 71.88L410.23 72.16L412.97 72.46L415.66 72.75L418.29 73.06L420.87 73.36L423.4 73.68L425.88 74L428.3 74.33L430.67 74.66L432.99 75L435.26 75.34L437.48 75.7L439.65 76.06L441.77 76.42L443.85 76.8L445.87 77.18L447.85 77.56L449.79 77.96L451.67 78.36L453.51 78.77L455.31 79.19L457.06 79.62L458.77 80.05L460.44 80.5L462.06 80.95L463.64 81.41L465.18 81.88L466.68 82.35L468.13 82.84L469.55 83.34L470.93 83.84L472.27 84.36L473.57 84.88L474.83 85.41L476.05 85.95L477.24 86.51L478.39 87.07L479.51 87.64L480.59 88.23L481.64 88.82L482.61 89.39L483.56 89.96L484.5 90.53L485.41 91.11L486.3 91.69L487.17 92.28L488.03 92.89L488.87 93.5L489.7 94.12L490.52 94.76L491.32 95.41L492.12 96.08L492.91 96.77L493.69 97.47L494.46 98.2L495.23 98.95L495.99 99.72L496.76 100.52L497.52 101.34L498.28 102.19L499.05 103.07L499.82 103.99L500.59 104.93L501.37 105.91L502.15 106.92L502.95 107.97L503.75 109.06L504.56 110.19L505.39 111.35L506.23 112.57L507.08 113.82L507.96 115.12L508.84 116.47L509.75 117.86L510.68 119.31L511.63 120.8L512.6 122.35L513.59 123.95L514.61 125.61L515.66 127.32L516.97 129.48L518.25 131.62L519.51 133.76L520.74 135.89L521.94 138.02L523.13 140.15L524.29 142.27L525.42 144.4L526.54 146.53L527.64 148.66L528.71 150.81L529.77 152.96L530.81 155.13L531.83 157.31L532.84 159.51L533.83 161.72L534.81 163.96L535.77 166.22L536.72 168.5L537.66 170.81L538.58 173.14L539.5 175.51L540.41 177.91L541.3 180.35L542.19 182.82L543.08 185.33L543.95 187.89L544.82 190.48L545.69 193.12L546.55 195.81L547.41 198.55L548.27 201.34L549.12 204.18L549.98 207.08L550.83 210.03L551.69 213.05L552.55 216.12L553.41 219.26L554.27 222.47L555.14 225.74L556.68 231.76L563.68 221.12L564.63 219.7L565.57 218.34L566.51 217.01L567.44 215.73L568.38 214.5L569.31 213.31L570.25 212.16L571.19 211.06L572.13 210L573.07 208.98L574.02 208L574.98 207.06L575.94 206.16L576.91 205.31L577.89 204.49L578.88 203.71L579.88 202.96L580.88 202.26L581.9 201.59L582.94 200.96L583.98 200.36L585.04 199.8L586.12 199.27L587.21 198.78L588.32 198.32L589.45 197.9L590.6 197.5L591.77 197.14L592.95 196.81L594.16 196.51L595.4 196.24L596.65 196L597.93 195.79L599.24 195.61L600.57 195.45L601.93 195.32L603.31 195.22L604.73 195.15L606.17 195.1L607.65 195.08L608.79 195.08L609.9 195.1L610.96 195.12L611.99 195.15L612.98 195.19L613.94 195.25L614.85 195.31L615.74 195.39L616.59 195.48L617.41 195.58L618.2 195.69L618.95 195.82L619.68 195.96L620.38 196.12L621.05 196.29L621.69 196.48L622.31 196.68L622.9 196.9L623.46 197.13L624.01 197.39L624.53 197.66L625.03 197.95L625.51 198.26L625.97 198.59L626.41 198.93L626.84 199.3L627.25 199.69L627.64 200.1L628.01 200.53L628.38 200.98L628.73 201.46L629.07 201.96L629.39 202.48L629.71 203.03L630.02 203.6L630.32 204.19L630.61 204.81L630.89 205.46L631.17 206.13L631.45 206.83L631.69 207.51L631.92 208.24L632.14 209.04L632.34 209.89L632.52 210.8L632.69 211.75L632.84 212.75L632.98 213.79L633.11 214.86L633.22 215.97L633.32 217.12L633.4 218.28L633.47 219.48L633.53 220.69L633.57 221.91L633.59 223.16L633.61 224.4L633.61 225.66L633.59 226.91L633.57 228.17L633.53 229.42L633.47 230.66L633.4 231.88L633.32 233.09L633.23 234.29L633.12 235.45L633 236.59L632.87 237.7L632.73 238.78L632.57 239.81L632.4 240.81L632.22 241.76L632.02 242.66L631.82 243.51L631.6 244.3L631.37 245.03L631.13 245.7L630.87 246.3L630.61 246.84L630.33 247.3L629.93 247.89L629.55 248.46L629.17 249L628.8 249.51L628.42 250L628.04 250.46L627.66 250.9L627.27 251.32L626.86 251.71L626.44 252.08L626 252.43L625.54 252.76L625.06 253.07L624.55 253.36L624.01 253.63L623.44 253.89L622.83 254.12L622.18 254.34L621.49 254.54L620.75 254.73L619.97 254.91L619.14 255.07L618.25 255.21L617.3 255.35L616.3 255.47L615.23 255.58L614.09 255.69L612.89 255.78L611.61 255.86L610.26 255.94L608.84 256.01L607.33 256.07L605.73 256.12L604.05 256.17L602.28 256.22L600.41 256.26L598.45 256.3L596.39 256.33L594.23 256.36L591.97 256.4L590.8 256.42L589.64 256.44L588.49 256.46L587.36 256.48L586.24 256.51L585.14 256.53L584.06 256.56L582.99 256.58L581.94 256.6L580.91 256.63L579.9 256.65L578.91 256.68L577.95 256.7L577 256.73L576.08 256.76L575.19 256.78L574.32 256.81L573.48 256.83L572.66 256.86L571.87 256.89L571.12 256.91L570.39 256.94L569.7 256.96L569.03 256.99L568.4 257.02L567.81 257.04L567.24 257.07L566.72 257.09L566.23 257.12L565.78 257.14L565.37 257.17L564.99 257.19L564.66 257.22L564.37 257.24L564.12 257.26L563.92 257.29L563.75 257.31L563.64 257.33L563.57 257.35L563.54 257.38L563.55 257.4L563.57 257.44L563.59 257.49L563.63 257.55L563.68 257.63L563.74 257.71L563.81 257.8L563.9 257.91L563.99 258.02L564.09 258.15L564.2 258.28L564.31 258.42L564.44 258.57L564.58 258.73L564.72 258.9L564.88 259.08L565.04 259.26L565.21 259.46L565.39 259.66L565.57 259.86L565.77 260.08L565.97 260.3L566.17 260.52L566.39 260.75L566.61 260.99L566.83 261.24L567.06 261.48L567.3 261.74L567.55 262L567.8 262.26L568.05 262.53L568.31 262.8L568.58 263.07L568.84 263.35L569.12 263.63L569.4 263.92L569.68 264.2L569.96 264.49L570.25 264.78L570.55 265.07L571.77 266.34L572.97 267.62L574.17 268.92L575.34 270.23L576.51 271.56L577.65 272.89L578.78 274.24L579.9 275.61L581 276.98L582.08 278.37L583.15 279.77L584.2 281.17L585.24 282.59L586.25 284.02L587.25 285.46L588.23 286.91L589.2 288.36L590.14 289.82L591.07 291.3L591.98 292.78L592.87 294.26L593.74 295.76L594.6 297.26L595.43 298.76L596.25 300.27L597.04 301.79L597.81 303.31L598.57 304.83L599.3 306.36L600.02 307.89L600.71 309.43L601.38 310.97L602.03 312.51L602.66 314.05L603.26 315.59L603.85 317.14L604.41 318.68L604.95 320.23L605.47 321.77L605.96 323.31L606.38 324.63L606.77 325.94L607.15 327.26L607.52 328.59L607.87 329.91L608.2 331.25L608.52 332.59L608.83 333.94L609.12 335.3L609.39 336.67L609.65 338.05L609.89 339.44L610.12 340.85L610.34 342.27L610.54 343.71L610.73 345.16L610.9 346.63L611.06 348.12L611.2 349.63L611.33 351.16L611.45 352.71L611.55 354.29L611.64 355.89L611.72 357.51L611.78 359.16L611.83 360.84L611.86 362.54L611.88 364.27L611.89 366.04L611.89 367.83L611.87 369.66L611.84 371.52L611.79 373.41L611.74 375.34L611.67 377.31L611.59 379.31L611.49 381.35L611.39 383.43L611.27 385.56L611.14 387.72L610.91 391.51L610.67 395.22L610.43 398.84L610.18 402.37L609.93 405.81L609.67 409.17L609.41 412.45L609.14 415.65L608.86 418.77L608.58 421.81L608.29 424.78L607.99 427.67L607.69 430.5L607.38 433.25L607.06 435.93L606.73 438.55L606.39 441.1L606.05 443.59L605.7 446.02L605.33 448.39L604.96 450.7L604.58 452.95L604.19 455.15L603.78 457.3L603.37 459.39L602.95 461.44L602.51 463.44L602.07 465.39L601.61 467.3L601.14 469.16L600.66 470.99L600.17 472.77L599.66 474.52L599.14 476.23L598.61 477.91L598.06 479.56L597.5 481.17L596.93 482.76L596.34 484.32L595.74 485.86L595.32 486.88L594.91 487.87L594.5 488.84L594.1 489.77L593.7 490.68L593.3 491.56L592.9 492.41L592.51 493.23L592.11 494.03L591.72 494.8L591.33 495.55L590.94 496.27L590.54 496.97L590.15 497.65L589.75 498.3L589.35 498.94L588.95 499.55L588.55 500.14L588.14 500.71L587.73 501.26L587.31 501.79L586.89 502.3L586.46 502.8L586.03 503.28L585.58 503.74L585.14 504.18L584.68 504.61L584.22 505.03L583.74 505.43L583.26 505.82L582.77 506.19L582.27 506.56L581.75 506.91L581.23 507.25L580.69 507.58L580.15 507.9L579.59 508.21L579.01 508.51L578.42 508.81L577.82 509.09L571.24 512.17L570.55 533.87L570.48 535.74L570.41 537.52L570.34 539.23L570.27 540.86L570.19 542.42L570.1 543.91L570.01 545.34L569.91 546.7L569.81 547.99L569.69 549.23L569.57 550.4L569.44 551.52L569.29 552.58L569.14 553.59L568.97 554.54L568.79 555.45L568.6 556.31L568.39 557.12L568.17 557.89L567.94 558.62L567.68 559.31L567.41 559.96L567.13 560.58L566.82 561.16L566.5 561.71L566.16 562.24L565.8 562.73L565.41 563.2L565.01 563.65L564.58 564.08L564.13 564.48L563.65 564.87L563.15 565.25L562.63 565.61L562.08 565.96L561.51 566.3L560.9 566.63L560.27 566.96L559.61 567.29L558.92 567.62L558.55 567.78L558.17 567.94L557.79 568.09L557.41 568.23L557.03 568.37L556.64 568.51L556.25 568.63L555.85 568.75L555.44 568.87L555.01 568.98L554.58 569.08L554.12 569.18L553.66 569.27L553.17 569.36L552.67 569.44L552.14 569.52L551.6 569.59L551.02 569.66L550.43 569.73L549.8 569.79L549.15 569.84L548.47 569.89L547.75 569.94L547.01 569.99L546.22 570.03L545.4 570.06L544.55 570.1L543.65 570.13L542.71 570.15L541.73 570.18L540.71 570.2L539.64 570.22L538.52 570.23L537.35 570.24L536.14 570.26L534.87 570.26L533.55 570.27L532.17 570.27L530.73 570.28L529.24 570.28L527.63 570.28L526.09 570.28L524.62 570.27L523.21 570.27L521.87 570.26L520.6 570.25L519.38 570.24L518.22 570.23L517.12 570.21L516.07 570.19L515.08 570.16L514.13 570.14L513.23 570.11L512.38 570.07L511.57 570.03L510.8 569.99L510.08 569.94L509.38 569.89L508.73 569.83L508.1 569.77L507.51 569.7L506.94 569.63L506.4 569.55L505.89 569.46L505.39 569.37L504.92 569.27L504.46 569.16L504.02 569.05L503.59 568.93L503.17 568.8L502.77 568.67L502.37 568.52L501.97 568.37L501.57 568.21L501.18 568.04L500.78 567.86L500.39 567.68L499.98 567.48L499.57 567.27L499.14 567.06L498.45 566.71L497.79 566.36L497.15 566.01L496.55 565.65L495.97 565.29L495.41 564.92L494.88 564.54L494.37 564.15L493.89 563.75L493.43 563.34L493 562.91L492.58 562.47L492.19 562.01L491.82 561.53L491.47 561.04L491.15 560.52L490.84 559.98L490.55 559.41L490.28 558.82L490.02 558.21L489.79 557.56L489.57 556.89L489.37 556.18L489.18 555.45L489.01 554.68L488.85 553.88L488.71 553.04L488.59 552.16L488.47 551.24L488.37 550.29L488.28 549.29L488.2 548.25L488.14 547.16L488.08 546.03L488.04 544.86L488 543.63L487.97 542.36L487.95 541.03L487.94 539.65L487.94 538.22L487.94 522.26L472.26 523.1L471.59 523.14L470.87 523.19L470.11 523.23L469.31 523.28L468.47 523.33L467.6 523.39L466.68 523.44L465.74 523.5L464.76 523.55L463.75 523.61L462.71 523.67L461.64 523.74L460.54 523.8L459.42 523.86L458.27 523.93L457.1 524L455.92 524.06L454.71 524.13L453.48 524.2L452.24 524.27L450.98 524.34L449.71 524.42L448.43 524.49L447.14 524.56L445.84 524.64L444.53 524.71L443.22 524.78L441.9 524.86L440.58 524.93L439.26 525.01L437.94 525.09L436.63 525.16L435.31 525.24L434 525.31L432.7 525.39L431.41 525.46L430.12 525.54L428.85 525.61L427.59 525.69L426.34 525.76L423.24 525.91L419.81 526.06L416.04 526.2L411.98 526.33L407.62 526.45L402.99 526.56L398.11 526.67L393 526.77L387.67 526.86L382.14 526.94L376.44 527.02L370.57 527.08L364.56 527.14L358.42 527.19L352.17 527.24L345.83 527.27L339.42 527.3L332.96 527.32L326.46 527.33L319.94 527.33L313.42 527.33L306.92 527.32L300.46 527.3L294.05 527.27L287.71 527.24L281.47 527.19L275.33 527.14L269.31 527.08L263.44 527.02L257.74 526.94L252.21 526.86L246.88 526.77L241.77 526.67L236.89 526.56L232.26 526.45L227.91 526.33L223.84 526.2L220.07 526.06L216.64 525.91L213.54 525.76L212.29 525.69L211.03 525.61L209.76 525.54L208.48 525.46L207.19 525.39L205.89 525.31L204.58 525.24L203.27 525.16L201.96 525.09L200.64 525.01L199.33 524.93L198.01 524.86L196.7 524.78L195.39 524.71L194.09 524.64L192.8 524.56L191.51 524.49L190.24 524.42L188.98 524.34L187.73 524.27L186.49 524.2L185.28 524.13L184.08 524.06L182.9 524L181.74 523.93L180.6 523.86L179.49 523.8L178.4 523.74L177.34 523.67L176.31 523.61L175.31 523.55L174.34 523.5L173.4 523.44L172.5 523.39L171.64 523.33L170.81 523.28L170.02 523.23L169.27 523.19L168.56 523.14L167.9 523.1L152.22 522.26L151.8 539.62L151.75 541.1L151.69 542.52L151.63 543.88L151.56 545.18L151.49 546.43L151.41 547.62L151.33 548.76L151.24 549.85L151.14 550.89L151.03 551.89L150.91 552.83L150.78 553.73L150.64 554.59L150.49 555.41L150.33 556.19L150.16 556.93L149.97 557.64L149.76 558.31L149.55 558.94L149.31 559.55L149.06 560.12L148.8 560.67L148.51 561.19L148.21 561.69L147.89 562.16L147.55 562.62L147.19 563.05L146.8 563.46L146.4 563.86L145.97 564.24L145.52 564.61L145.05 564.97L144.55 565.32L144.03 565.66L143.48 565.99L142.9 566.32L142.3 566.65L141.67 566.97L141.01 567.29L140.32 567.62L139.94 567.78L139.56 567.94L139.19 568.09L138.81 568.23L138.43 568.37L138.04 568.51L137.65 568.63L137.24 568.75L136.83 568.87L136.41 568.98L135.97 569.08L135.52 569.18L135.05 569.27L134.57 569.36L134.06 569.44L133.54 569.52L132.99 569.59L132.42 569.66L131.82 569.73L131.2 569.79L130.55 569.84L129.86 569.89L129.15 569.94L128.4 569.99L127.62 570.03L126.8 570.06L125.94 570.1L125.05 570.13L124.11 570.15L123.13 570.18L122.1 570.2L121.03 570.22L119.92 570.23L118.75 570.24L117.53 570.26L116.26 570.26L114.94 570.27L113.56 570.27L112.13 570.28L110.63 570.28L109.13 570.28L107.69 570.27L106.3 570.27L104.97 570.26L103.7 570.26L102.48 570.24L101.3 570.23L100.18 570.22L99.11 570.2L98.08 570.18L97.1 570.15L96.16 570.13L95.26 570.1L94.41 570.06L93.59 570.03L92.81 569.99L92.06 569.94L91.35 569.89L90.67 569.84L90.02 569.79L89.4 569.73L88.8 569.66L88.24 569.59L87.69 569.52L87.17 569.44L86.67 569.36L86.19 569.27L85.72 569.18L85.28 569.08L84.84 568.98L84.42 568.87L84.01 568.75L83.61 568.63L83.22 568.51L82.84 568.37L82.46 568.23L82.08 568.09L81.7 567.94L81.33 567.78L80.95 567.62L80.26 567.29L79.6 566.96L78.97 566.63L78.37 566.3L77.79 565.96L77.24 565.61L76.72 565.25L76.22 564.87L75.75 564.48L75.3 564.08L74.87 563.65L74.46 563.2L74.08 562.73L73.72 562.24L73.37 561.71L73.05 561.16L72.74 560.58L72.46 559.96L72.19 559.31L71.94 558.62L71.7 557.89L71.48 557.12L71.27 556.31L71.08 555.45L70.9 554.54L70.73 553.59L70.58 552.58L70.44 551.52L70.3 550.4L70.18 549.23L70.07 547.99L69.96 546.7L69.86 545.34L69.77 543.91L69.68 542.42L69.61 540.86L69.53 539.23L69.46 537.52L69.39 535.74L69.33 533.87L68.63 512.17L62.05 509.09L61.76 508.94L61.46 508.79L61.16 508.63L60.86 508.46L60.56 508.29L60.26 508.11L59.96 507.93L59.66 507.75L59.35 507.56L59.05 507.36L58.75 507.16L58.45 506.96L58.15 506.75L57.85 506.54L57.55 506.33L57.25 506.11L56.96 505.89L56.67 505.67L56.38 505.44L56.09 505.21L55.8 504.98L55.52 504.74L55.24 504.51L54.97 504.27L54.7 504.03L54.43 503.78L54.17 503.54L53.91 503.29L53.66 503.04L53.41 502.79L53.17 502.54L52.93 502.29L52.7 502.04L52.48 501.79L52.26 501.54L52.05 501.29L51.84 501.03L51.65 500.78L51.46 500.53L51.27 500.27L50.9 499.74L50.53 499.16L50.14 498.55L49.75 497.89L49.36 497.2L48.96 496.47L48.55 495.71L48.15 494.92L47.74 494.09L47.32 493.24L46.91 492.35L46.49 491.44L46.08 490.51L45.66 489.54L45.24 488.56L44.83 487.55L44.41 486.53L44 485.48L43.59 484.42L43.19 483.34L42.79 482.24L42.39 481.14L41.99 480.02L41.61 478.89L41.22 477.75L40.85 476.6L40.48 475.45L40.12 474.29L39.77 473.13L39.42 471.97L39.09 470.8L38.76 469.64L38.45 468.48L38.14 467.32L37.85 466.17L37.57 465.02L37.3 463.88L37.04 462.75L36.8 461.63L36.57 460.52L36.15 458.37L35.72 456.11L35.31 453.72L34.9 451.22L34.5 448.63L34.1 445.93L33.72 443.15L33.34 440.28L32.97 437.34L32.61 434.34L32.26 431.27L31.93 428.15L31.6 424.99L31.28 421.79L30.98 418.56L30.69 415.3L30.41 412.02L30.15 408.74L29.9 405.45L29.66 402.17L29.44 398.91L29.24 395.66L29.05 392.43L28.87 389.24L28.72 386.09L28.58 382.99L28.46 379.95L28.35 376.97L28.27 374.05L28.21 371.22L28.16 368.46L28.14 365.8L28.13 363.24L28.15 360.78L28.19 358.44L28.25 356.21L28.34 354.12L28.45 352.15L28.58 350.33L28.73 348.66L29.02 346.31L29.34 343.98L29.69 341.66L30.09 339.34L30.52 337.05L31 334.76L31.51 332.48L32.06 330.22L32.64 327.97L33.27 325.74L33.93 323.51L34.63 321.3L35.37 319.1L36.14 316.92L36.95 314.74L37.8 312.58L38.69 310.44L39.62 308.31L40.58 306.19L41.58 304.08L42.62 301.99L43.69 299.92L44.8 297.85L45.95 295.81L47.14 293.77L48.36 291.75L49.62 289.75L50.91 287.76L52.25 285.78L53.62 283.82L55.03 281.88L56.47 279.95L57.95 278.03L59.47 276.13L61.02 274.25L62.61 272.38L64.24 270.53L65.9 268.69L67.6 266.87L69.34 265.07L69.63 264.78L69.92 264.48L70.2 264.2L70.49 263.91L70.76 263.62L71.04 263.34L71.31 263.07L71.57 262.79L71.83 262.52L72.08 262.25L72.33 261.99L72.58 261.73L72.82 261.48L73.05 261.23L73.28 260.99L73.5 260.75L73.71 260.52L73.92 260.29L74.12 260.07L74.31 259.86L74.49 259.65L74.67 259.45L74.84 259.26L75 259.07L75.16 258.9L75.3 258.73L75.44 258.57L75.57 258.42L75.69 258.27L75.8 258.14L75.9 258.02L75.99 257.9L76.07 257.8L76.14 257.7L76.2 257.62L76.25 257.55L76.29 257.49L76.31 257.44L76.33 257.4L76.34 257.37L76.31 257.35L76.24 257.33L76.13 257.3L75.96 257.28L75.76 257.26L75.51 257.23L75.22 257.21L74.89 257.19L74.51 257.16L74.1 257.14L73.65 257.11L73.16 257.09L72.64 257.06L72.07 257.04L71.48 257.01L70.85 256.98L70.19 256.96L69.49 256.93L68.76 256.91L68.01 256.88L67.22 256.85L66.4 256.83L65.56 256.8L64.69 256.78L63.8 256.75L62.88 256.72L61.94 256.7L60.97 256.67L59.98 256.65L58.97 256.62L57.94 256.6L56.89 256.57L55.82 256.55L54.74 256.52L53.64 256.5L52.52 256.48L51.39 256.46L50.24 256.43L49.09 256.41L47.91 256.39L46.13 256.36L44.43 256.33L42.79 256.3L41.22 256.26L39.71 256.23L38.27 256.2L36.89 256.16L35.58 256.13L34.32 256.09L33.12 256.05L31.98 256.01L30.89 255.97L29.85 255.92L28.87 255.88L27.93 255.83L27.05 255.78L26.21 255.73L25.41 255.67L24.65 255.61L23.94 255.55L23.27 255.49L22.63 255.42L22.03 255.35L21.47 255.27L20.93 255.19L20.43 255.11L19.96 255.03L19.51 254.93L19.09 254.84L18.7 254.74L18.33 254.63L17.98 254.52L17.64 254.41L17.33 254.29L17.03 254.16L16.75 254.03L16.47 253.9L16.21 253.75L15.96 253.61L15.72 253.45L15.19 253.11L14.69 252.76L14.2 252.42L13.74 252.07L13.29 251.72L12.86 251.37L12.46 251.01L12.07 250.65L11.69 250.27L11.34 249.89L11 249.5L10.68 249.1L10.37 248.68L10.08 248.25L9.8 247.81L9.54 247.35L9.29 246.87L9.06 246.37L8.83 245.86L8.63 245.32L8.43 244.76L8.25 244.17L8.07 243.57L7.91 242.93L7.76 242.27L7.62 241.58L7.49 240.86L7.37 240.11L7.25 239.33L7.15 238.51L7.05 237.66L6.96 236.78L6.88 235.85L6.81 234.89L6.74 233.89L6.68 232.85L6.62 231.77L6.57 230.64L6.52 229.47L6.47 228.26L6.44 226.91L6.41 225.6L6.4 224.33L6.39 223.1L6.4 221.9L6.42 220.73L6.45 219.6L6.49 218.51L6.54 217.45L6.61 216.42L6.69 215.42L6.78 214.46L6.89 213.52L7 212.62L7.13 211.74L7.28 210.9L7.44 210.08L7.61 209.29L7.79 208.53L7.99 207.8L8.21 207.09L8.44 206.4L8.68 205.74L8.94 205.11L9.22 204.5L9.51 203.91L9.81 203.34L10.13 202.8L10.47 202.28L10.82 201.77L11.19 201.29L11.58 200.83L11.98 200.38L12.4 199.95L12.84 199.54L13.3 199.15L13.77 198.77L14.26 198.41L14.77 198.07L15.29 197.73L15.78 197.46L16.32 197.2L16.92 196.95L17.56 196.71L18.24 196.5L18.97 196.29L19.73 196.1L20.54 195.92L21.38 195.76L22.25 195.61L23.15 195.48L24.08 195.36L25.03 195.25L26 195.16L27 195.09L28.01 195.02L29.04 194.98L30.08 194.94L31.13 194.92L32.18 194.92L33.24 194.93L34.3 194.95L35.36 194.99L36.42 195.05L37.47 195.11L38.52 195.2L39.55 195.29L40.57 195.4L41.57 195.53L42.56 195.67L43.53 195.82L44.47 195.99L45.38 196.18L46.27 196.38L47.13 196.59L47.95 196.82L48.74 197.06L49.48 197.32L50.19 197.59L50.85 197.87L51.56 198.21L52.27 198.55L52.98 198.91L53.68 199.28L54.38 199.67L55.07 200.06L55.76 200.47L56.44 200.9L57.13 201.34L57.81 201.79L58.48 202.25L59.15 202.73L59.82 203.21L60.48 203.72L61.14 204.23L61.8 204.76L62.45 205.3L63.1 205.86L63.74 206.43L64.38 207.01L65.01 207.6L65.65 208.21L66.27 208.83L66.9 209.47L67.52 210.11L68.14 210.77L68.75 211.45L69.36 212.13L69.96 212.83L70.56 213.55L71.15 214.27L71.75 215.01L72.33 215.76L72.92 216.53L73.5 217.31L74.07 218.1L74.64 218.9L75.21 219.72L75.77 220.55L76.33 221.39L83.19 231.76L84.73 225.73L85.4 223.18L86.07 220.68L86.72 218.22L87.37 215.82L88.02 213.47L88.67 211.16L89.31 208.9L89.94 206.69L90.58 204.51L91.22 202.37L91.85 200.27L92.48 198.21L93.12 196.18L93.76 194.19L94.39 192.22L95.03 190.29L95.68 188.38L96.32 186.5L96.98 184.64L97.63 182.8L98.29 180.99L98.96 179.19L99.64 177.42L100.32 175.65L101.01 173.91L101.71 172.17L102.42 170.44L103.13 168.73L103.86 167.02L104.6 165.31L105.35 163.61L106.11 161.91L106.89 160.21L107.68 158.51L108.48 156.8L109.3 155.1L110.13 153.38L110.98 151.65L111.85 149.92L112.73 148.17L113.59 146.49L114.44 144.82L115.3 143.17L116.16 141.53L117.02 139.91L117.89 138.31L118.75 136.72L119.62 135.15L120.49 133.61L121.36 132.08L122.22 130.57L123.09 129.08L123.95 127.61L124.82 126.17L125.68 124.74L126.54 123.34L127.39 121.97L128.24 120.62L129.09 119.29L129.94 117.99L130.78 116.71L131.61 115.46L132.44 114.24L133.27 113.05L134.09 111.88L134.9 110.74L135.7 109.64L136.5 108.56L137.29 107.51L138.07 106.5L138.85 105.51L139.61 104.56L140.37 103.64L141.11 102.76L141.85 101.91L142.57 101.09L143.28 100.31L143.99 99.57L144.68 98.86L145.35 98.19L146.63 97.01L147.96 95.86L149.35 94.74L150.8 93.64L152.3 92.57L153.87 91.53L155.49 90.52L157.18 89.53L158.93 88.58L160.75 87.64L162.63 86.74L164.58 85.86L166.6 85.01L168.69 84.18L170.84 83.37L173.07 82.59L175.38 81.84L177.75 81.11L180.2 80.4L182.73 79.72L185.34 79.06L188.02 78.42L190.79 77.8L193.64 77.21L196.57 76.64L199.58 76.09L202.67 75.56L205.86 75.05L209.13 74.57L212.49 74.1L215.94 73.65L219.47 73.23L223.1 72.82L226.83 72.43L230.65 72.06L234.56 71.71L238.57 71.37L242.68 71.06L246.88 70.76L251.19 70.48L253.25 70.37L255.62 70.26L258.27 70.17L261.2 70.09L264.38 70.02L267.81 69.95L271.45 69.89L275.3 69.84L279.35 69.8L283.56 69.77L287.93 69.75L292.44 69.73L297.07 69.72L301.81 69.72L306.63 69.73L311.53 69.74ZM339.14 395.39L333.26 395.4L327.1 395.41L320.63 395.42L313.17 395.42L306.09 395.42L299.38 395.42L293.03 395.42L287.03 395.43L281.37 395.43L276.04 395.44L271.03 395.46L266.33 395.48L261.92 395.51L257.8 395.54L253.96 395.58L250.39 395.63L247.07 395.68L243.99 395.75L241.16 395.82L238.55 395.91L236.15 396.01L233.96 396.12L231.96 396.24L230.15 396.38L228.51 396.52L227.04 396.69L225.71 396.87L224.53 397.06L223.48 397.28L222.56 397.51L221.74 397.76L221.03 398.02L220.41 398.31L219.86 398.62L219.39 398.95L218.98 399.3L218.62 399.67L218.29 400.07L218 400.49L217.72 400.93L217.45 401.4L217.18 401.9L216.89 402.42L216.57 403.04L216.28 403.65L216.02 404.26L215.78 404.87L215.58 405.48L215.4 406.09L215.26 406.7L215.14 407.31L215.06 407.93L215.01 408.54L214.99 409.16L215.01 409.79L215.05 410.42L215.13 411.06L215.24 411.7L215.39 412.36L215.57 413.02L215.78 413.69L216.03 414.38L216.32 415.07L216.64 415.78L216.99 416.5L217.38 417.23L217.81 417.98L218.28 418.75L218.78 419.53L219.32 420.33L219.89 421.14L220.51 421.98L221.16 422.83L221.86 423.71L222.59 424.61L223.36 425.53L224.18 426.47L225.03 427.44L225.92 428.43L226.86 429.45L227.83 430.49L228.85 431.56L229.91 432.66L230.89 433.66L231.8 434.61L232.67 435.51L233.49 436.36L234.29 437.16L235.06 437.91L235.82 438.62L236.59 439.28L237.36 439.9L238.15 440.48L238.97 441.02L239.83 441.52L240.74 441.98L241.71 442.41L242.74 442.8L243.86 443.17L245.06 443.5L246.36 443.8L247.77 444.07L249.3 444.31L250.96 444.53L252.75 444.72L254.7 444.89L256.8 445.04L259.06 445.17L261.51 445.28L264.14 445.38L266.97 445.46L270.01 445.52L273.27 445.57L276.75 445.61L280.47 445.64L284.43 445.66L288.65 445.67L293.14 445.68L297.91 445.68L302.96 445.68L308.31 445.68L313.96 445.68L319.93 445.68L325.9 445.68L331.56 445.68L336.91 445.68L341.96 445.68L346.72 445.68L351.21 445.67L355.44 445.66L359.4 445.64L363.12 445.61L366.6 445.57L369.86 445.52L372.89 445.46L375.72 445.38L378.36 445.29L380.8 445.18L383.07 445.05L385.17 444.9L387.11 444.73L388.91 444.53L390.56 444.31L392.09 444.07L393.5 443.8L394.8 443.5L396.01 443.17L397.12 442.81L398.16 442.41L399.12 441.99L400.03 441.52L400.89 441.02L401.71 440.48L402.5 439.9L403.28 439.28L404.04 438.62L404.8 437.91L405.58 437.16L406.37 436.36L407.2 435.51L408.06 434.61L408.98 433.66L409.95 432.66L411.18 431.37L412.36 430.11L413.49 428.89L414.56 427.69L415.58 426.51L416.54 425.37L417.45 424.25L418.31 423.16L419.12 422.09L419.87 421.05L420.57 420.03L421.22 419.03L421.82 418.06L422.36 417.11L422.86 416.18L423.3 415.27L423.69 414.38L424.02 413.5L424.31 412.65L424.55 411.82L424.73 411L424.86 410.2L424.95 409.41L424.98 408.64L424.96 407.88L424.89 407.14L424.78 406.41L424.61 405.69L424.39 404.98L424.13 404.29L423.81 403.6L423.44 402.93L423.03 402.26L422.57 401.61L422.05 400.96L421.49 400.31L420.89 399.68L420.23 399.05L419.52 398.42L418.77 397.8L418.56 397.63L418.33 397.48L418.06 397.33L417.76 397.18L417.41 397.05L417 396.92L416.54 396.79L416.01 396.68L415.4 396.57L414.72 396.46L413.94 396.36L413.07 396.27L412.09 396.18L411.01 396.1L409.81 396.02L408.48 395.95L407.02 395.89L405.42 395.82L403.68 395.77L401.78 395.71L399.72 395.67L397.5 395.62L395.1 395.58L392.51 395.55L389.74 395.52L386.77 395.49L383.6 395.47L380.22 395.45L376.62 395.43L372.8 395.41L368.75 395.4L364.45 395.4L359.91 395.39L355.12 395.39L350.06 395.39L344.74 395.39L339.14 395.39ZM125.83 307.84L124.52 307.95L123.21 308.09L121.9 308.27L120.61 308.5L119.32 308.76L118.04 309.07L116.77 309.41L115.51 309.79L114.27 310.22L113.03 310.68L111.8 311.18L110.59 311.72L109.39 312.3L108.21 312.92L107.04 313.58L105.89 314.28L104.76 315.01L103.64 315.78L102.54 316.59L101.46 317.44L100.39 318.33L99.35 319.25L98.33 320.22L97.34 321.22L95.81 322.86L94.39 324.55L93.07 326.29L91.85 328.08L90.73 329.9L89.7 331.77L88.78 333.66L87.96 335.59L87.23 337.54L86.6 339.51L86.07 341.5L85.63 343.51L85.28 345.53L85.03 347.56L84.88 349.6L84.82 351.64L84.85 353.67L84.97 355.7L85.18 357.72L85.49 359.73L85.88 361.73L86.36 363.7L86.94 365.66L87.6 367.59L88.34 369.48L89.18 371.35L90.1 373.18L91.11 374.97L92.2 376.71L93.37 378.41L94.64 380.06L95.98 381.65L97.4 383.19L98.91 384.67L100.5 386.08L102.17 387.42L103.92 388.7L105.75 389.9L107.66 391.02L109.65 392.06L110.45 392.44L111.27 392.8L112.1 393.14L112.96 393.47L113.83 393.78L114.72 394.06L115.63 394.34L116.54 394.59L117.48 394.82L118.42 395.04L119.37 395.24L120.33 395.42L121.3 395.58L122.28 395.73L123.26 395.85L124.25 395.96L125.25 396.05L126.24 396.12L127.24 396.17L128.23 396.2L129.23 396.22L130.23 396.21L131.22 396.19L132.21 396.15L133.19 396.09L134.17 396.01L135.14 395.91L136.1 395.79L137.06 395.66L138 395.5L138.93 395.33L139.85 395.13L140.75 394.92L141.64 394.69L142.52 394.44L143.37 394.17L144.21 393.88L145.03 393.57L145.83 393.24L146.61 392.9L147.34 392.55L148.07 392.19L148.79 391.82L149.51 391.43L150.22 391.03L150.93 390.61L151.63 390.18L152.32 389.73L153 389.27L153.68 388.8L154.35 388.31L155.02 387.82L155.67 387.31L156.32 386.78L156.96 386.25L157.59 385.7L158.21 385.15L158.82 384.58L159.42 384L160.02 383.41L160.6 382.82L161.17 382.21L161.74 381.59L162.29 380.96L162.83 380.33L163.36 379.69L163.87 379.03L164.38 378.37L164.87 377.71L165.35 377.03L165.82 376.35L166.28 375.66L166.72 374.96L167.15 374.26L167.57 373.55L167.97 372.84L168.36 372.12L168.73 371.4L169.09 370.67L169.43 369.94L169.68 369.37L169.91 368.82L170.14 368.29L170.35 367.78L170.56 367.28L170.75 366.8L170.94 366.33L171.11 365.87L171.28 365.42L171.43 364.98L171.58 364.55L171.72 364.12L171.84 363.71L171.96 363.29L172.08 362.88L172.18 362.47L172.27 362.06L172.36 361.65L172.44 361.24L172.51 360.82L172.58 360.4L172.63 359.98L172.69 359.54L172.73 359.1L172.77 358.65L172.8 358.19L172.82 357.72L172.84 357.23L172.85 356.73L172.86 356.22L172.86 355.68L172.86 355.13L172.85 354.56L172.83 353.97L172.81 353.36L172.79 352.72L172.76 352.06L172.73 351.37L172.69 350.66L172.65 349.92L172.56 348.56L172.45 347.23L172.31 345.92L172.13 344.63L171.94 343.36L171.71 342.11L171.45 340.88L171.17 339.67L170.86 338.48L170.52 337.31L170.15 336.17L169.76 335.04L169.33 333.94L168.88 332.86L168.4 331.79L167.89 330.75L167.35 329.73L166.78 328.73L166.19 327.75L165.57 326.79L164.91 325.85L164.23 324.93L163.52 324.03L162.78 323.15L162.02 322.29L161.22 321.45L160.4 320.63L159.54 319.84L158.66 319.06L157.75 318.3L156.81 317.57L155.84 316.85L154.84 316.15L153.81 315.48L152.76 314.82L151.67 314.18L150.55 313.57L149.41 312.97L148.24 312.4L147.03 311.84L145.73 311.27L144.42 310.75L143.1 310.27L141.78 309.83L140.45 309.43L139.12 309.08L137.79 308.77L136.46 308.5L135.13 308.27L133.79 308.09L132.46 307.94L131.13 307.84L129.8 307.78L128.47 307.76L127.15 307.78L125.83 307.84ZM508.37 307.88L507.32 307.96L506.27 308.06L505.23 308.19L504.18 308.35L503.14 308.53L502.09 308.74L501.05 308.98L500.01 309.24L498.97 309.53L497.93 309.85L496.9 310.2L495.86 310.57L494.83 310.96L493.8 311.39L492.77 311.84L491.74 312.32L490.72 312.82L489.69 313.35L488.67 313.91L487.65 314.5L487.06 314.84L486.48 315.2L485.9 315.56L485.34 315.93L484.79 316.3L484.24 316.68L483.71 317.06L483.18 317.45L482.67 317.85L482.16 318.26L481.66 318.67L481.17 319.09L480.69 319.52L480.21 319.96L479.75 320.4L479.29 320.86L478.83 321.32L478.39 321.79L477.95 322.27L477.52 322.76L477.1 323.26L476.68 323.76L476.27 324.28L475.86 324.81L475.46 325.35L475.06 325.9L474.68 326.46L474.29 327.03L473.91 327.61L473.54 328.2L473.17 328.8L472.8 329.42L472.44 330.05L472.08 330.69L471.73 331.34L471.38 332.01L471.03 332.68L470.69 333.37L470.35 334.08L470.01 334.8L469.68 335.56L469.36 336.36L469.06 337.17L468.78 338.01L468.52 338.87L468.28 339.74L468.06 340.63L467.86 341.54L467.68 342.47L467.51 343.41L467.37 344.36L467.24 345.32L467.13 346.3L467.04 347.28L466.97 348.27L466.92 349.27L466.89 350.27L466.87 351.27L466.88 352.28L466.9 353.29L466.94 354.3L467 355.31L467.08 356.32L467.17 357.33L467.29 358.32L467.42 359.32L467.57 360.3L467.74 361.28L467.92 362.25L468.13 363.21L468.35 364.15L468.59 365.08L468.84 366L469.12 366.9L469.41 367.78L469.72 368.65L470.05 369.49L470.39 370.32L470.75 371.12L471.13 371.9L471.46 372.52L471.8 373.14L472.16 373.76L472.54 374.38L472.93 375L473.34 375.62L473.77 376.24L474.21 376.86L474.67 377.48L475.14 378.09L475.63 378.7L476.12 379.31L476.63 379.91L477.16 380.51L477.69 381.1L478.23 381.69L478.79 382.27L479.35 382.84L479.93 383.41L480.51 383.97L481.11 384.52L481.71 385.07L482.31 385.6L482.93 386.13L483.55 386.65L484.17 387.15L484.81 387.65L485.44 388.13L486.08 388.6L486.73 389.06L487.37 389.51L488.02 389.95L488.67 390.37L489.33 390.77L489.98 391.17L490.64 391.54L491.29 391.91L491.95 392.25L492.6 392.58L493.25 392.9L494.03 393.24L494.83 393.57L495.65 393.88L496.49 394.17L497.34 394.44L498.22 394.69L499.11 394.92L500.01 395.13L500.93 395.33L501.86 395.5L502.81 395.66L503.76 395.79L504.72 395.91L505.69 396.01L506.67 396.09L507.65 396.15L508.64 396.19L509.63 396.21L510.63 396.22L511.63 396.2L512.62 396.17L513.62 396.12L514.62 396.05L515.61 395.96L516.6 395.85L517.58 395.73L518.56 395.58L519.53 395.42L520.49 395.24L521.44 395.04L522.39 394.82L523.32 394.59L524.23 394.34L525.14 394.06L526.03 393.78L526.9 393.47L527.76 393.14L528.6 392.8L529.41 392.44L530.21 392.06L530.55 391.89L530.9 391.7L531.24 391.52L531.6 391.32L531.96 391.12L532.32 390.91L532.68 390.69L533.05 390.47L533.42 390.24L533.79 390.01L534.17 389.76L534.54 389.52L534.92 389.27L535.29 389.01L535.67 388.75L536.04 388.49L536.42 388.22L536.79 387.95L537.16 387.68L537.53 387.4L537.89 387.12L538.26 386.84L538.62 386.56L538.97 386.27L539.32 385.98L539.67 385.7L540.01 385.41L540.35 385.12L540.68 384.83L541 384.54L541.32 384.25L541.63 383.96L541.93 383.67L542.22 383.38L542.51 383.09L542.79 382.81L543.05 382.53L543.31 382.25L543.56 381.97L543.79 381.7L545.22 380L546.55 378.26L547.78 376.48L548.91 374.66L549.94 372.8L550.87 370.91L551.7 369L552.44 367.05L553.08 365.09L553.63 363.1L554.08 361.11L554.44 359.1L554.71 357.08L554.88 355.05L554.96 353.03L554.95 351.01L554.86 348.99L554.67 346.98L554.39 344.99L554.03 343.01L553.58 341.04L553.04 339.11L552.42 337.19L551.71 335.31L550.92 333.46L550.05 331.65L549.09 329.87L548.06 328.14L546.94 326.46L545.74 324.82L544.46 323.24L543.11 321.72L541.67 320.25L540.16 318.85L538.57 317.52L536.91 316.26L535.17 315.07L533.35 313.96L531.47 312.93L529.51 311.98L528.45 311.52L527.39 311.09L526.33 310.68L525.27 310.3L524.21 309.95L523.15 309.63L522.09 309.33L521.03 309.06L519.97 308.81L518.91 308.59L517.86 308.4L516.8 308.24L515.74 308.1L514.69 307.99L513.63 307.9L512.58 307.85L511.53 307.82L510.47 307.81L509.42 307.83L508.37 307.88ZM310.41 108.25L305.79 108.28L301.19 108.32L296.63 108.38L292.12 108.46L287.66 108.54L283.28 108.64L278.97 108.76L274.75 108.89L270.63 109.03L266.61 109.19L262.71 109.36L258.93 109.54L255.29 109.74L251.79 109.95L248.45 110.17L245.27 110.41L242.27 110.66L239.44 110.93L236.49 111.24L233.57 111.56L230.69 111.9L227.85 112.24L225.06 112.6L222.3 112.96L219.59 113.34L216.92 113.73L214.3 114.12L211.73 114.53L209.21 114.94L206.73 115.36L204.31 115.79L201.94 116.23L199.63 116.67L197.37 117.13L195.17 117.59L193.02 118.05L190.94 118.52L188.92 119L186.96 119.48L185.06 119.97L183.23 120.46L181.46 120.96L179.76 121.46L178.13 121.97L176.57 122.48L175.08 122.99L173.67 123.51L172.33 124.02L171.06 124.55L169.87 125.07L168.76 125.59L167.73 126.12L166.78 126.64L165.91 127.17L165.12 127.69L164.42 128.22L163.81 128.75L163.28 129.27L162.89 129.71L162.47 130.24L162 130.86L161.5 131.57L160.96 132.36L160.4 133.23L159.8 134.18L159.17 135.2L158.51 136.29L157.83 137.45L157.13 138.67L156.41 139.95L155.66 141.28L154.9 142.67L154.12 144.1L153.32 145.58L152.52 147.1L151.7 148.65L150.87 150.24L150.04 151.87L149.2 153.51L148.35 155.19L147.51 156.88L146.66 158.59L145.82 160.31L144.98 162.04L144.14 163.77L143.31 165.51L142.5 167.25L141.69 168.98L140.89 170.71L140.11 172.42L139.34 174.12L138.6 175.8L137.87 177.45L137.16 179.08L136.48 180.68L135.82 182.25L135.19 183.78L134.58 185.27L134.13 186.45L133.66 187.68L133.18 188.95L132.7 190.26L132.21 191.61L131.71 193L131.21 194.41L130.7 195.86L130.19 197.33L129.67 198.83L129.16 200.35L128.64 201.88L128.12 203.44L127.61 205L127.09 206.57L126.58 208.15L126.08 209.73L125.57 211.31L125.08 212.89L124.59 214.46L124.11 216.03L123.63 217.58L123.17 219.12L122.72 220.64L122.28 222.15L121.85 223.63L121.43 225.08L121.03 226.5L120.64 227.9L120.27 229.26L119.92 230.58L119.58 231.86L119.26 233.09L118.96 234.29L118.69 235.43L118.43 236.52L118.2 237.55L117.99 238.53L117.8 239.44L117.64 240.29L117.57 240.66L117.5 241.01L117.44 241.35L117.38 241.66L117.33 241.96L117.28 242.25L117.23 242.51L117.19 242.76L117.16 243L117.13 243.22L117.11 243.43L117.1 243.62L117.1 243.8L117.1 243.96L117.1 244.11L117.12 244.25L117.15 244.38L117.18 244.49L117.22 244.59L117.27 244.69L117.33 244.77L117.4 244.84L117.48 244.9L117.57 244.95L117.67 244.99L117.78 245.03L117.9 245.05L118.03 245.07L118.17 245.08L118.33 245.08L118.49 245.07L118.67 245.06L118.87 245.04L119.07 245.02L119.29 244.99L119.52 244.95L119.76 244.92L120.02 244.87L120.29 244.82L120.58 244.77L121.16 244.69L121.92 244.59L122.85 244.48L123.94 244.37L125.19 244.25L126.58 244.12L128.12 243.98L129.79 243.84L131.6 243.69L133.52 243.54L135.57 243.38L137.72 243.22L139.97 243.05L142.32 242.88L144.76 242.71L147.29 242.53L149.89 242.35L152.56 242.17L155.29 241.99L158.08 241.8L160.92 241.62L163.81 241.44L166.73 241.25L169.68 241.07L172.66 240.89L175.65 240.71L178.65 240.53L181.66 240.35L184.66 240.18L187.66 240.01L190.63 239.85L193.59 239.69L196.52 239.53L199.41 239.38L202.26 239.24L205.06 239.1L207.8 238.97L210.49 238.84L213.1 238.73L215.64 238.62L222.89 238.3L230.14 238.01L237.39 237.74L244.63 237.49L251.87 237.27L259.1 237.06L266.33 236.88L273.55 236.72L280.77 236.58L287.98 236.47L295.19 236.37L302.39 236.3L309.58 236.25L316.77 236.22L323.96 236.22L331.13 236.23L338.3 236.27L345.47 236.33L352.62 236.41L359.77 236.52L366.91 236.65L374.05 236.79L381.17 236.96L388.29 237.16L395.4 237.37L402.5 237.61L409.6 237.87L416.68 238.15L423.76 238.45L430.82 238.78L437.88 239.12L444.93 239.49L451.97 239.88L459 240.3L466.02 240.73L473.03 241.19L480.03 241.67L487.01 242.17L493.99 242.69L500.96 243.24L501.82 243.3L502.67 243.36L503.51 243.42L504.34 243.47L505.16 243.53L505.98 243.58L506.78 243.63L507.57 243.68L508.35 243.72L509.11 243.76L509.86 243.8L510.6 243.84L511.32 243.87L512.02 243.91L512.71 243.94L513.38 243.96L514.03 243.99L514.66 244.01L515.28 244.03L515.87 244.05L516.44 244.06L516.99 244.07L517.52 244.08L518.02 244.09L518.5 244.09L518.96 244.09L519.39 244.09L519.8 244.09L520.18 244.08L520.53 244.07L520.85 244.06L521.15 244.04L521.41 244.02L521.64 244L521.85 243.97L522.02 243.95L522.16 243.91L522.27 243.88L522.34 243.84L522.38 243.8L522.45 243.62L522.48 243.34L522.48 242.96L522.44 242.48L522.38 241.92L522.28 241.26L522.15 240.53L522 239.71L521.82 238.82L521.62 237.85L521.38 236.82L521.13 235.72L520.85 234.56L520.55 233.35L520.23 232.08L519.9 230.77L519.54 229.41L519.17 228L518.78 226.56L518.37 225.09L517.95 223.59L517.52 222.06L517.08 220.51L516.62 218.94L516.16 217.36L515.69 215.77L515.21 214.17L514.72 212.56L514.23 210.96L513.73 209.37L513.24 207.78L512.74 206.2L512.24 204.65L511.74 203.11L511.24 201.59L510.74 200.11L510.25 198.65L509.76 197.24L509.27 195.86L508.8 194.52L508.25 193.04L507.66 191.49L507.02 189.87L506.34 188.19L505.63 186.45L504.88 184.65L504.1 182.81L503.29 180.92L502.45 179L501.58 177.04L500.7 175.06L499.79 173.06L498.87 171.04L497.93 169.01L496.99 166.97L496.03 164.93L495.06 162.9L494.09 160.88L493.12 158.87L492.15 156.88L491.19 154.91L490.23 152.98L489.27 151.09L488.33 149.23L487.4 147.42L486.49 145.66L485.6 143.96L484.73 142.33L483.88 140.76L483.06 139.26L482.27 137.84L481.51 136.5L480.79 135.25L480.1 134.1L479.45 133.04L478.84 132.09L478.27 131.24L477.76 130.51L477.29 129.9L476.87 129.42L476.32 128.87L475.68 128.33L474.97 127.79L474.17 127.25L473.3 126.71L472.35 126.17L471.32 125.64L470.22 125.11L469.04 124.58L467.79 124.05L466.46 123.53L465.06 123.01L463.6 122.5L462.06 121.99L460.45 121.49L458.78 120.99L457.04 120.49L455.23 120L453.35 119.52L451.41 119.04L449.41 118.57L447.34 118.1L445.22 117.64L443.03 117.19L440.78 116.74L438.47 116.31L436.1 115.88L433.68 115.45L431.2 115.04L428.66 114.63L426.07 114.23L423.42 113.84L420.73 113.46L417.98 113.09L415.17 112.73L412.32 112.38L409.42 112.04L406.47 111.71L403.48 111.39L400.43 111.08L397.57 110.8L394.52 110.54L391.31 110.29L387.93 110.06L384.4 109.84L380.72 109.63L376.92 109.44L372.99 109.26L368.95 109.1L364.8 108.95L360.56 108.81L356.24 108.69L351.84 108.58L347.37 108.49L342.85 108.41L338.28 108.35L333.67 108.29L329.04 108.26L324.38 108.23L319.72 108.22L315.06 108.23L310.41 108.25Z" id="d1K5OrGP07"></path></defs><g><g><g><use xlink:href="#d1K5OrGP07" opacity="1" fill="#57c1ef" fill-opacity="1"></use><g><use xlink:href="#d1K5OrGP07" opacity="1" fill-opacity="0" stroke="#000000" stroke-width="1" stroke-opacity="0"></use></g></g></g></g></svg>