<?xml version="1.0" encoding="UTF-8" standalone="no"?>
<!DOCTYPE svg PUBLIC "-//W3C//DTD SVG 1.1//EN" "http://www.w3.org/Graphics/SVG/1.1/DTD/svg11.dtd">
<svg version="1.1" xmlns="http://www.w3.org/2000/svg" xmlns:xlink="http://www.w3.org/1999/xlink" preserveAspectRatio="xMidYMid meet" viewBox="0 0 640 640" width="640" height="640"><defs><path d="M299.12 11.36C298.16 4.8 292.54 0 285.95 0C285.82 0 285.66 0 285.5 0C278.72 0.21 273.2 5.47 272.67 12.21C271.5 26.22 262.16 138.29 260.99 152.29C260.27 160.93 244.94 160.93 244.22 152.29C243.05 138.29 233.73 26.22 232.56 12.21C231.98 5.31 226.22 0 219.28 0C212.35 0 206.56 5.31 206 12.21C204.84 26.22 195.49 138.29 194.32 152.29C193.6 160.93 178.27 160.93 177.55 152.29C176.38 138.29 167.06 26.22 165.9 12.21C165.34 5.49 159.82 0.24 153.04 0C152.88 0 152.75 0 152.62 0C146.03 0 140.4 4.8 139.44 11.36C137.02 27.49 117.67 156.56 115.26 172.69C108.14 219.97 133.79 265.2 177.04 284.05C174.98 312.91 158.51 543.73 156.46 572.59C155.23 589.95 161.31 607.2 173.18 619.95C185.02 632.69 201.79 640 219.23 640C219.24 640 219.33 640 219.34 640C236.75 640 253.55 632.69 265.42 619.95C277.28 607.2 283.36 589.95 282.14 572.59C280.08 543.73 263.61 312.91 261.55 284.05C304.8 265.2 330.46 219.97 323.34 172.69C318.49 140.43 301.55 27.49 299.12 11.36Z" id="mPxMxOB2R"></path><path d="M508.16 0.77C507.02 1.17 392.62 43.2 392.62 173.33C392.62 267.01 423.1 314.32 440.24 333.52C438.54 335.23 424.88 348.88 423.18 350.59C420.99 352.77 419.63 355.63 419.34 358.69C417.23 379.79 400.35 548.56 398.24 569.65C396.43 587.6 402.32 605.57 414.43 618.96C426.54 632.35 443.9 640 461.92 640C497.2 640 525.92 611.28 525.92 576C525.92 519.73 525.92 69.6 525.92 13.33C525.95 8.99 523.84 4.96 520.3 2.45C516.78 -0.05 512.24 -0.64 508.16 0.77Z" id="ceRDWijMm"></path></defs><g><g><g><use xlink:href="#mPxMxOB2R" opacity="1" fill="#c388af" fill-opacity="1"></use><g><use xlink:href="#mPxMxOB2R" opacity="1" fill-opacity="0" stroke="#000000" stroke-width="1" stroke-opacity="0"></use></g></g><g><use xlink:href="#ceRDWijMm" opacity="1" fill="#c388af" fill-opacity="1"></use><g><use xlink:href="#ceRDWijMm" opacity="1" fill-opacity="0" stroke="#000000" stroke-width="1" stroke-opacity="0"></use></g></g></g></g></svg>