<?xml version="1.0" encoding="UTF-8" standalone="no"?>
<!DOCTYPE svg PUBLIC "-//W3C//DTD SVG 1.1//EN" "http://www.w3.org/Graphics/SVG/1.1/DTD/svg11.dtd">
<svg version="1.1" xmlns="http://www.w3.org/2000/svg" xmlns:xlink="http://www.w3.org/1999/xlink" preserveAspectRatio="xMidYMid meet" viewBox="0 0 640 640" width="640" height="640"><defs><path d="M342.1 25.23C329.5 13.74 310.49 13.74 297.9 25.22C269.18 51.39 39.46 260.71 10.75 286.87C0.65 296.07 -2.68 310.25 2.25 322.99C7.18 335.72 19.2 343.95 32.85 343.95C35.91 343.95 51.2 343.95 78.72 343.95C78.72 501.24 78.72 588.62 78.72 606.1C78.72 616.49 87.14 624.92 97.54 624.92C113.28 624.92 239.19 624.92 254.93 624.92C265.32 624.92 273.75 616.5 273.75 606.1C273.75 595.49 273.75 542.43 273.75 446.93L366.25 446.93C366.25 542.43 366.25 595.49 366.25 606.1C366.25 616.5 374.68 624.92 385.07 624.92C400.81 624.92 526.72 624.92 542.46 624.92C552.85 624.92 561.28 616.5 561.28 606.1C561.28 588.63 561.28 501.24 561.28 343.95C588.8 343.95 604.09 343.95 607.15 343.95C620.81 343.95 632.82 335.72 637.76 322.99C642.68 310.25 639.35 296.07 629.25 286.87C571.82 234.54 370.82 51.39 342.1 25.23Z" id="aMEyT8EZ1"></path><path d="M429.97 53.41L575.19 185.46C575.19 117.52 575.19 79.78 575.19 72.23C575.19 61.84 566.76 53.41 556.36 53.41C539.51 53.41 497.38 53.41 429.97 53.41Z" id="ahgUZEpEM"></path></defs><g><g><g><use xlink:href="#aMEyT8EZ1" opacity="1" fill="#89c248" fill-opacity="1"></use><g><use xlink:href="#aMEyT8EZ1" opacity="1" fill-opacity="0" stroke="#89c248" stroke-width="1" stroke-opacity="0"></use></g></g><g><use xlink:href="#ahgUZEpEM" opacity="1" fill="#89c248" fill-opacity="1"></use><g><use xlink:href="#ahgUZEpEM" opacity="1" fill-opacity="0" stroke="#000000" stroke-width="1" stroke-opacity="0"></use></g></g></g></g></svg>