<?xml version="1.0" encoding="UTF-8" standalone="no"?>
<!DOCTYPE svg PUBLIC "-//W3C//DTD SVG 1.1//EN" "http://www.w3.org/Graphics/SVG/1.1/DTD/svg11.dtd">
<svg version="1.1" xmlns="http://www.w3.org/2000/svg" xmlns:xlink="http://www.w3.org/1999/xlink" preserveAspectRatio="xMidYMid meet" viewBox="0 0 640 640" width="640" height="640"><defs><path d="M207.7 81.74L208.86 81.81L210.02 81.92L211.18 82.05L212.33 82.2L213.48 82.39L214.62 82.6L215.76 82.84L216.9 83.11L218.03 83.4L219.15 83.73L220.27 84.08L221.38 84.45L222.48 84.86L223.57 85.29L224.65 85.75L225.73 86.23L226.79 86.74L227.85 87.28L228.89 87.85L229.92 88.44L230.94 89.06L231.95 89.7L232.95 90.37L238.45 95.48L238.71 95.81L238.98 96.14L239.25 96.47L239.52 96.8L239.8 97.13L240.07 97.46L240.35 97.79L240.63 98.12L240.91 98.46L241.19 98.79L241.47 99.12L241.75 99.46L242.04 99.79L242.32 100.12L242.61 100.45L242.89 100.78L243.17 101.11L243.46 101.44L243.74 101.77L244.02 102.09L244.31 102.41L244.59 102.73L244.87 103.05L245.15 103.37L245.43 103.68L245.7 103.99L245.98 104.3L246.25 104.6L246.52 104.9L246.79 105.2L247.06 105.49L247.32 105.78L247.58 106.06L247.84 106.34L248.1 106.62L248.35 106.89L248.6 107.15L248.84 107.41L249.08 107.66L249.32 107.91L391.17 107.91L391.46 107.65L391.74 107.37L392.04 107.09L392.34 106.8L392.64 106.51L392.95 106.21L393.26 105.9L393.57 105.59L393.89 105.28L394.21 104.96L394.53 104.63L394.86 104.3L395.19 103.97L395.52 103.63L395.86 103.29L396.19 102.95L396.53 102.6L396.86 102.25L397.2 101.9L397.54 101.55L397.88 101.2L398.22 100.84L398.56 100.48L398.89 100.13L399.23 99.77L399.57 99.41L399.9 99.05L400.24 98.7L400.57 98.34L400.9 97.98L401.22 97.63L401.55 97.28L401.87 96.92L402.18 96.58L402.5 96.23L402.81 95.88L403.11 95.54L403.42 95.21L403.71 94.87L404.01 94.54L408.77 90.32L409.76 89.65L410.77 89.01L411.79 88.39L412.82 87.8L413.86 87.24L414.92 86.7L415.98 86.2L417.06 85.71L418.14 85.26L419.23 84.83L420.33 84.43L421.44 84.06L422.55 83.71L423.67 83.39L424.8 83.1L425.94 82.83L427.08 82.6L428.22 82.39L429.37 82.2L430.52 82.05L431.68 81.92L432.83 81.82L433.99 81.75L435.16 81.71L436.32 81.69L437.48 81.7L438.65 81.74L439.81 81.81L440.98 81.9L442.14 82.03L443.3 82.18L444.46 82.36L445.61 82.56L446.77 82.8L447.91 83.06L449.06 83.36L450.2 83.68L451.33 84.03L452.46 84.41L453.58 84.81L530.57 113.84L531.76 114.32L532.91 114.84L534.02 115.39L535.08 115.98L536.11 116.61L537.09 117.28L538.04 117.97L538.94 118.7L539.82 119.46L540.65 120.26L541.46 121.08L542.23 121.93L542.97 122.82L543.67 123.73L544.35 124.66L545.01 125.63L545.63 126.61L546.23 127.63L546.8 128.66L547.35 129.72L547.88 130.8L548.39 131.9L548.88 133.02L549.35 134.15L549.8 135.31L550.23 136.48L550.65 137.67L551.06 138.88L551.45 140.09L551.83 141.33L552.2 142.57L552.56 143.83L552.92 145.09L553.26 146.37L553.6 147.66L553.94 148.95L554.27 150.25L554.6 151.56L554.92 152.87L555.25 154.19L555.3 154.4L555.35 154.61L555.4 154.81L555.45 155.01L555.49 155.22L555.54 155.42L555.59 155.62L555.64 155.82L555.68 156.01L555.73 156.21L555.77 156.4L555.82 156.59L555.86 156.78L555.91 156.97L555.95 157.15L556 157.34L556.04 157.52L556.09 157.7L556.13 157.87L556.17 158.05L556.22 158.22L556.26 158.39L556.3 158.56L556.34 158.72L556.39 158.89L556.43 159.05L556.47 159.2L556.51 159.36L556.55 159.51L556.59 159.66L556.63 159.8L556.68 159.95L556.72 160.09L556.76 160.23L556.8 160.36L556.84 160.49L556.88 160.62L556.92 160.74L556.96 160.86L557 160.98L560.39 168.03L563.94 175.54L567.63 183.5L571.43 191.87L575.33 200.63L579.29 209.75L583.3 219.21L587.33 228.97L591.36 239.02L595.37 249.33L599.33 259.86L603.22 270.59L607.02 281.51L610.71 292.57L614.25 303.76L617.64 315.04L620.84 326.39L623.83 337.79L626.59 349.2L629.1 360.61L631.34 371.98L633.28 383.28L634.89 394.5L636.16 405.6L637.06 416.57L637.57 427.36L637.67 437.96L637.33 448.34L636.53 458.47L635.25 468.32L633.46 477.88L631.14 487.11L628.28 495.98L624.83 504.48L620.79 512.56L616.14 520.22L610.83 527.41L604.86 534.12L598.2 540.32L590.83 545.97L590.27 546.36L589.71 546.73L589.14 547.1L588.57 547.45L587.99 547.8L587.41 548.13L586.83 548.46L586.24 548.77L585.65 549.08L585.06 549.37L584.46 549.66L583.86 549.93L583.26 550.2L582.65 550.46L582.04 550.7L581.43 550.94L580.81 551.17L580.19 551.38L579.57 551.59L578.95 551.79L578.33 551.98L577.7 552.15L577.07 552.32L576.44 552.48L575.81 552.63L575.18 552.77L574.54 552.9L573.9 553.02L573.26 553.13L572.62 553.23L571.98 553.32L571.34 553.4L570.7 553.47L570.05 553.54L569.41 553.59L568.76 553.63L568.12 553.67L567.47 553.69L566.82 553.7L566.18 553.71L565.37 553.7L564.57 553.68L563.76 553.64L562.96 553.59L562.15 553.53L561.35 553.45L560.55 553.35L559.75 553.24L558.95 553.12L558.16 552.98L557.36 552.83L556.57 552.66L555.78 552.48L554.99 552.28L554.21 552.07L553.42 551.84L552.65 551.6L551.87 551.35L551.1 551.08L550.33 550.8L549.57 550.5L548.81 550.19L548.05 549.86L547.3 549.52L546.56 549.17L545.81 548.8L545.08 548.42L544.35 548.02L543.62 547.61L542.9 547.18L542.19 546.74L541.48 546.29L540.78 545.82L540.09 545.34L539.4 544.84L538.72 544.33L538.05 543.8L537.38 543.27L536.72 542.71L536.07 542.15L444.48 460.76L443.87 460.22L443.25 459.7L442.63 459.2L441.99 458.7L441.35 458.22L440.7 457.74L440.05 457.29L439.38 456.84L438.71 456.41L438.04 455.99L437.36 455.58L436.67 455.18L435.98 454.8L435.28 454.43L434.57 454.07L433.86 453.73L433.14 453.4L432.42 453.08L431.7 452.78L430.96 452.49L430.23 452.21L429.49 451.95L428.75 451.7L428 451.47L427.25 451.25L426.49 451.04L425.73 450.84L424.97 450.66L424.2 450.5L423.43 450.34L422.66 450.21L421.89 450.08L421.11 449.97L420.33 449.88L419.55 449.8L418.77 449.73L417.98 449.68L417.2 449.64L416.41 449.62L415.62 449.61L226.07 449.61L225.28 449.62L224.49 449.64L223.7 449.68L222.92 449.73L222.14 449.8L221.35 449.88L220.58 449.97L219.8 450.08L219.02 450.21L218.25 450.34L217.48 450.5L216.72 450.66L215.95 450.84L215.19 451.04L214.44 451.25L213.68 451.47L212.93 451.7L212.19 451.95L211.45 452.22L210.71 452.49L209.98 452.78L209.26 453.08L208.53 453.4L207.82 453.73L207.11 454.07L206.4 454.43L205.7 454.8L205.01 455.18L204.32 455.58L203.64 455.99L202.96 456.41L202.29 456.84L201.63 457.29L200.98 457.74L200.33 458.22L199.69 458.7L199.06 459.2L198.43 459.7L197.81 460.22L197.21 460.76L105.62 542.15L104.46 543.13L103.28 544.08L102.08 544.98L100.85 545.84L99.61 546.65L98.34 547.41L97.05 548.14L95.75 548.81L94.42 549.45L93.08 550.04L91.73 550.58L90.37 551.08L88.99 551.53L87.6 551.94L86.2 552.3L84.79 552.62L83.37 552.89L81.95 553.12L80.52 553.3L79.09 553.43L77.66 553.52L76.22 553.57L74.79 553.56L73.35 553.51L71.92 553.42L70.49 553.28L69.06 553.09L67.64 552.86L66.22 552.58L64.82 552.25L63.42 551.87L62.03 551.45L60.65 550.99L59.29 550.47L57.94 549.91L56.61 549.3L55.29 548.65L53.98 547.94L52.7 547.19L51.44 546.39L43.12 540.31L35.68 533.57L29.08 526.23L23.29 518.3L18.28 509.84L14.02 500.87L10.47 491.44L7.6 481.58L5.39 471.33L3.79 460.72L2.79 449.79L2.33 438.57L2.4 427.12L2.97 415.45L3.99 403.61L5.44 391.63L7.28 379.56L9.49 367.42L12.04 355.26L14.88 343.1L17.99 331L21.34 318.98L24.89 307.08L28.61 295.34L32.48 283.79L36.45 272.47L40.5 261.42L44.6 250.68L48.7 240.27L52.79 230.25L56.83 220.64L60.79 211.47L64.63 202.8L68.33 194.65L71.85 187.07L75.15 180.08L78.22 173.72L81.01 168.04L83.49 163.06L85.64 158.83L85.64 158.84L85.63 158.84L85.63 158.84L85.62 158.85L85.62 158.85L85.61 158.85L85.61 158.85L85.6 158.86L85.6 158.86L85.59 158.86L85.57 158.85L85.56 158.84L85.55 158.82L85.55 158.79L85.54 158.75L85.54 158.7L85.55 158.65L85.55 158.59L85.56 158.52L85.56 158.44L85.58 158.36L85.59 158.27L85.6 158.17L85.62 158.06L85.64 157.96L85.66 157.84L85.69 157.72L85.71 157.59L85.74 157.46L85.77 157.32L85.8 157.18L85.83 157.03L85.86 156.88L85.89 156.72L85.93 156.56L85.97 156.4L86.01 156.23L86.05 156.06L86.09 155.88L86.13 155.71L86.17 155.52L86.22 155.34L86.26 155.15L86.31 154.97L86.35 154.78L86.4 154.58L86.45 154.39L86.5 154.19L86.55 154L86.6 153.8L86.92 152.49L87.24 151.19L87.57 149.9L87.89 148.61L88.22 147.32L88.56 146.05L88.9 144.79L89.25 143.53L89.61 142.29L89.97 141.05L90.35 139.83L90.74 138.63L91.14 137.43L91.56 136.26L91.99 135.1L92.43 133.95L92.9 132.82L93.38 131.72L93.89 130.63L94.41 129.56L94.96 128.51L95.53 127.49L96.12 126.49L96.74 125.51L97.39 124.56L98.06 123.63L98.77 122.73L99.5 121.86L100.27 121.01L101.06 120.2L101.9 119.41L102.76 118.66L103.67 117.93L104.61 117.24L105.58 116.59L106.6 115.96L107.66 115.38L108.76 114.83L109.91 114.31L111.09 113.84L188.16 84.81L189.28 84.4L190.4 84.02L191.53 83.67L192.66 83.35L193.8 83.05L194.95 82.79L196.1 82.55L197.25 82.34L198.41 82.16L199.57 82.01L200.73 81.89L201.89 81.79L203.05 81.72L204.21 81.69L205.38 81.68L206.54 81.69L207.7 81.74ZM211.94 212.88L210.87 212.99L209.82 213.14L208.77 213.33L207.75 213.56L206.74 213.83L205.74 214.13L204.77 214.48L203.81 214.86L202.87 215.27L201.95 215.72L201.05 216.21L200.17 216.72L199.31 217.27L198.48 217.86L197.67 218.47L196.89 219.11L196.13 219.78L195.4 220.48L194.69 221.2L194.02 221.95L193.37 222.73L192.76 223.53L192.17 224.36L191.62 225.21L191.09 226.08L190.61 226.97L190.15 227.88L189.73 228.81L189.35 229.76L189 230.73L188.69 231.71L188.42 232.72L188.19 233.73L188 234.76L187.85 235.81L187.74 236.86L187.68 237.93L187.66 239.01L187.66 265.23L161.2 265.23L160.11 265.26L159.03 265.32L157.96 265.43L156.91 265.58L155.86 265.77L154.84 266L153.83 266.27L152.83 266.57L151.86 266.92L150.9 267.3L149.96 267.71L149.04 268.16L148.14 268.65L147.26 269.16L146.4 269.71L145.57 270.3L144.76 270.91L143.98 271.55L143.22 272.22L142.49 272.92L141.78 273.64L141.11 274.39L140.46 275.17L139.85 275.97L139.26 276.8L138.71 277.65L138.18 278.52L137.7 279.41L137.24 280.32L136.82 281.25L136.44 282.2L136.09 283.17L135.78 284.15L135.51 285.16L135.28 286.17L135.09 287.2L134.94 288.25L134.83 289.3L134.77 290.37L134.75 291.45L134.77 292.53L134.83 293.6L134.94 294.66L135.09 295.71L135.28 296.74L135.51 297.75L135.78 298.75L136.09 299.74L136.44 300.71L136.82 301.66L137.24 302.59L137.7 303.5L138.18 304.39L138.71 305.26L139.26 306.11L139.85 306.94L140.46 307.74L141.11 308.51L141.78 309.27L142.49 309.99L143.22 310.69L143.98 311.36L144.76 312L145.57 312.61L146.4 313.19L147.26 313.74L148.14 314.26L149.04 314.75L149.96 315.2L150.9 315.61L151.86 315.99L152.83 316.34L153.83 316.64L154.84 316.91L155.86 317.14L156.91 317.33L157.96 317.48L159.03 317.59L160.11 317.65L161.2 317.67L187.66 317.67L187.66 343.89L187.68 344.97L187.74 346.04L187.85 347.1L188 348.14L188.19 349.18L188.42 350.19L188.69 351.19L189 352.18L189.35 353.15L189.73 354.1L190.15 355.03L190.61 355.94L191.09 356.83L191.62 357.7L192.17 358.55L192.76 359.38L193.37 360.18L194.02 360.95L194.69 361.71L195.4 362.43L196.13 363.13L196.89 363.8L197.67 364.44L198.48 365.05L199.31 365.63L200.17 366.18L201.05 366.7L201.95 367.19L202.87 367.64L203.81 368.05L204.77 368.43L205.74 368.78L206.74 369.08L207.75 369.35L208.77 369.58L209.82 369.77L210.87 369.92L211.94 370.03L213.02 370.09L214.11 370.11L215.2 370.09L216.28 370.03L217.35 369.92L218.41 369.77L219.45 369.58L220.47 369.35L221.49 369.08L222.48 368.78L223.46 368.43L224.42 368.05L225.36 367.64L226.28 367.19L227.18 366.7L228.05 366.18L228.91 365.63L229.74 365.05L230.55 364.44L231.34 363.8L232.09 363.13L232.82 362.43L233.53 361.71L234.2 360.95L234.85 360.18L235.47 359.38L236.05 358.55L236.61 357.7L237.13 356.83L237.62 355.94L238.07 355.03L238.49 354.1L238.87 353.15L239.22 352.18L239.53 351.19L239.8 350.19L240.03 349.18L240.22 348.14L240.37 347.1L240.48 346.04L240.54 344.97L240.57 343.89L240.57 317.67L267.02 317.67L268.11 317.65L269.19 317.59L270.26 317.48L271.32 317.33L272.36 317.14L273.38 316.91L274.4 316.64L275.39 316.34L276.37 315.99L277.33 315.61L278.27 315.2L279.19 314.75L280.09 314.26L280.96 313.74L281.82 313.19L282.65 312.61L283.46 312L284.25 311.36L285 310.69L285.73 309.99L286.44 309.27L287.11 308.51L287.76 307.74L288.38 306.94L288.96 306.11L289.52 305.26L290.04 304.39L290.53 303.5L290.98 302.59L291.4 301.66L291.78 300.71L292.13 299.74L292.44 298.75L292.71 297.75L292.94 296.74L293.13 295.71L293.28 294.66L293.39 293.6L293.45 292.53L293.48 291.45L293.45 290.37L293.39 289.3L293.28 288.25L293.13 287.2L292.94 286.17L292.71 285.16L292.44 284.15L292.13 283.17L291.78 282.2L291.4 281.25L290.98 280.32L290.53 279.41L290.04 278.52L289.52 277.65L288.96 276.8L288.38 275.97L287.76 275.17L287.11 274.39L286.44 273.64L285.73 272.92L285 272.22L284.25 271.55L283.46 270.91L282.65 270.3L281.82 269.71L280.96 269.16L280.09 268.65L279.19 268.16L278.27 267.71L277.33 267.3L276.37 266.92L275.39 266.57L274.4 266.27L273.38 266L272.36 265.77L271.32 265.58L270.26 265.43L269.19 265.32L268.11 265.26L267.02 265.23L240.57 265.23L240.57 239.01L240.54 237.93L240.48 236.86L240.37 235.81L240.22 234.76L240.03 233.73L239.8 232.72L239.53 231.71L239.22 230.73L238.87 229.76L238.49 228.81L238.07 227.88L237.62 226.97L237.13 226.08L236.61 225.21L236.05 224.36L235.47 223.53L234.85 222.73L234.2 221.95L233.53 221.2L232.82 220.48L232.09 219.78L231.34 219.11L230.55 218.47L229.74 217.86L228.91 217.27L228.05 216.72L227.18 216.21L226.28 215.72L225.36 215.27L224.42 214.86L223.46 214.48L222.48 214.13L221.49 213.83L220.47 213.56L219.45 213.33L218.41 213.14L217.35 212.99L216.28 212.88L215.2 212.82L214.11 212.79L213.02 212.82L211.94 212.88ZM421.85 291.74L420.58 291.96L419.34 292.23L418.12 292.56L416.92 292.95L415.75 293.4L414.6 293.89L413.49 294.44L412.4 295.04L411.35 295.68L410.33 296.37L409.35 297.11L408.4 297.89L407.49 298.71L406.62 299.57L405.79 300.47L405 301.41L404.26 302.39L403.56 303.4L402.91 304.44L402.31 305.52L401.76 306.62L401.26 307.76L400.81 308.92L400.42 310.1L400.08 311.31L399.8 312.55L399.59 313.8L399.43 315.07L399.33 316.37L399.3 317.67L399.33 318.98L399.43 320.27L399.59 321.55L399.8 322.8L400.08 324.03L400.42 325.24L400.81 326.43L401.26 327.59L401.76 328.72L402.31 329.83L402.91 330.9L403.56 331.95L404.26 332.96L405 333.93L405.79 334.87L406.62 335.77L407.49 336.64L408.4 337.46L409.35 338.24L410.33 338.98L411.35 339.67L412.4 340.31L413.49 340.91L414.6 341.46L415.75 341.95L416.92 342.39L418.12 342.78L419.34 343.12L420.58 343.39L421.85 343.61L423.13 343.77L424.43 343.86L425.75 343.89L427.07 343.86L428.38 343.77L429.66 343.61L430.93 343.39L432.17 343.12L433.39 342.78L434.59 342.39L435.76 341.95L436.9 341.46L438.02 340.91L439.1 340.31L440.15 339.67L441.17 338.98L442.16 338.24L443.11 337.46L444.02 336.64L444.89 335.77L445.72 334.87L446.5 333.93L447.25 332.96L447.94 331.95L448.59 330.9L449.2 329.83L449.75 328.72L450.25 327.59L450.7 326.43L451.09 325.24L451.42 324.03L451.7 322.8L451.92 321.55L452.08 320.27L452.18 318.98L452.21 317.67L452.18 316.37L452.08 315.07L451.92 313.8L451.7 312.55L451.42 311.31L451.09 310.1L450.7 308.92L450.25 307.76L449.75 306.62L449.2 305.52L448.59 304.44L447.94 303.4L447.25 302.39L446.5 301.41L445.72 300.47L444.89 299.57L444.02 298.71L443.11 297.89L442.16 297.11L441.17 296.37L440.15 295.68L439.1 295.04L438.02 294.44L436.9 293.89L435.76 293.4L434.59 292.95L433.39 292.56L432.17 292.23L430.93 291.96L429.66 291.74L428.38 291.58L427.07 291.49L425.75 291.45L424.43 291.49L423.13 291.58L421.85 291.74ZM476.04 239.14L474.76 239.3L473.49 239.52L472.25 239.79L471.03 240.13L469.83 240.51L468.66 240.96L467.51 241.45L466.4 242L465.31 242.6L464.26 243.24L463.24 243.93L462.26 244.67L461.31 245.45L460.4 246.27L459.53 247.13L458.7 248.04L457.91 248.97L457.17 249.95L456.47 250.96L455.82 252L455.22 253.08L454.67 254.18L454.17 255.32L453.72 256.48L453.33 257.66L452.99 258.87L452.71 260.11L452.5 261.36L452.34 262.63L452.24 263.93L452.21 265.23L452.24 266.54L452.34 267.83L452.5 269.11L452.71 270.36L452.99 271.59L453.33 272.8L453.72 273.99L454.17 275.15L454.67 276.28L455.22 277.39L455.82 278.46L456.47 279.51L457.17 280.52L457.91 281.49L458.7 282.43L459.53 283.34L460.4 284.2L461.31 285.02L462.26 285.8L463.24 286.54L464.26 287.23L465.31 287.87L466.4 288.47L467.51 289.02L468.66 289.51L469.83 289.95L471.03 290.34L472.25 290.68L473.49 290.95L474.76 291.17L476.04 291.33L477.34 291.42L478.66 291.45L479.98 291.42L481.29 291.33L482.57 291.17L483.84 290.95L485.08 290.68L486.3 290.34L487.5 289.95L488.67 289.51L489.81 289.02L490.93 288.47L492.01 287.87L493.06 287.23L494.08 286.54L495.07 285.8L496.02 285.02L496.93 284.2L497.8 283.34L498.63 282.43L499.41 281.49L500.16 280.52L500.85 279.51L501.5 278.46L502.11 277.39L502.66 276.28L503.16 275.15L503.6 273.99L504 272.8L504.33 271.59L504.61 270.36L504.83 269.11L504.99 267.83L505.09 266.54L505.12 265.23L505.09 263.93L504.99 262.63L504.83 261.36L504.61 260.11L504.33 258.87L504 257.66L503.6 256.48L503.16 255.32L502.66 254.18L502.11 253.08L501.5 252L500.85 250.96L500.16 249.95L499.41 248.97L498.63 248.04L497.8 247.13L496.93 246.27L496.02 245.45L495.07 244.67L494.08 243.93L493.06 243.24L492.01 242.6L490.93 242L489.81 241.45L488.67 240.96L487.5 240.51L486.3 240.13L485.08 239.79L483.84 239.52L482.57 239.3L481.29 239.14L479.98 239.05L478.66 239.01L477.34 239.05L476.04 239.14ZM370.22 239.14L368.93 239.3L367.67 239.52L366.43 239.79L365.2 240.13L364.01 240.51L362.84 240.96L361.69 241.45L360.58 242L359.49 242.6L358.44 243.24L357.42 243.93L356.44 244.67L355.49 245.45L354.58 246.27L353.71 247.13L352.88 248.04L352.09 248.97L351.35 249.95L350.65 250.96L350 252L349.4 253.08L348.85 254.18L348.35 255.32L347.9 256.48L347.51 257.66L347.17 258.87L346.89 260.11L346.67 261.36L346.52 262.63L346.42 263.93L346.39 265.23L346.42 266.54L346.52 267.83L346.67 269.11L346.89 270.36L347.17 271.59L347.51 272.8L347.9 273.99L348.35 275.15L348.85 276.28L349.4 277.39L350 278.46L350.65 279.51L351.35 280.52L352.09 281.49L352.88 282.43L353.71 283.34L354.58 284.2L355.49 285.02L356.44 285.8L357.42 286.54L358.44 287.23L359.49 287.87L360.58 288.47L361.69 289.02L362.84 289.51L364.01 289.95L365.2 290.34L366.43 290.68L367.67 290.95L368.93 291.17L370.22 291.33L371.52 291.42L372.84 291.45L374.16 291.42L375.46 291.33L376.75 291.17L378.01 290.95L379.26 290.68L380.48 290.34L381.68 289.95L382.85 289.51L383.99 289.02L385.11 288.47L386.19 287.87L387.24 287.23L388.26 286.54L389.25 285.8L390.2 285.02L391.11 284.2L391.98 283.34L392.81 282.43L393.59 281.49L394.34 280.52L395.03 279.51L395.68 278.46L396.29 277.39L396.84 276.28L397.34 275.15L397.78 273.99L398.18 272.8L398.51 271.59L398.79 270.36L399.01 269.11L399.17 267.83L399.26 266.54L399.3 265.23L399.26 263.93L399.17 262.63L399.01 261.36L398.79 260.11L398.51 258.87L398.18 257.66L397.78 256.48L397.34 255.32L396.84 254.18L396.29 253.08L395.68 252L395.03 250.96L394.34 249.95L393.59 248.97L392.81 248.04L391.98 247.13L391.11 246.27L390.2 245.45L389.25 244.67L388.26 243.93L387.24 243.24L386.19 242.6L385.11 242L383.99 241.45L382.85 240.96L381.68 240.51L380.48 240.13L379.26 239.79L378.01 239.52L376.75 239.3L375.46 239.14L374.16 239.05L372.84 239.01L371.52 239.05L370.22 239.14ZM423.13 186.7L421.85 186.86L420.58 187.07L419.34 187.35L418.12 187.68L416.92 188.07L415.75 188.51L414.6 189.01L413.49 189.56L412.4 190.15L411.35 190.8L410.33 191.49L409.35 192.23L408.4 193.01L407.49 193.83L406.62 194.69L405.79 195.59L405 196.53L404.26 197.51L403.56 198.52L402.91 199.56L402.31 200.64L401.76 201.74L401.26 202.88L400.81 204.04L400.42 205.22L400.08 206.43L399.8 207.67L399.59 208.92L399.43 210.19L399.33 211.48L399.3 212.79L399.33 214.1L399.43 215.39L399.59 216.67L399.8 217.92L400.08 219.15L400.42 220.36L400.81 221.55L401.26 222.71L401.76 223.84L402.31 224.95L402.91 226.02L403.56 227.07L404.26 228.08L405 229.05L405.79 229.99L406.62 230.89L407.49 231.76L408.4 232.58L409.35 233.36L410.33 234.09L411.35 234.79L412.4 235.43L413.49 236.03L414.6 236.57L415.75 237.07L416.92 237.51L418.12 237.9L419.34 238.23L420.58 238.51L421.85 238.73L423.13 238.88L424.43 238.98L425.75 239.01L427.07 238.98L428.38 238.88L429.66 238.73L430.93 238.51L432.17 238.23L433.39 237.9L434.59 237.51L435.76 237.07L436.9 236.57L438.02 236.03L439.1 235.43L440.15 234.79L441.17 234.09L442.16 233.36L443.11 232.58L444.02 231.76L444.89 230.89L445.72 229.99L446.5 229.05L447.25 228.08L447.94 227.07L448.59 226.02L449.2 224.95L449.75 223.84L450.25 222.71L450.7 221.55L451.09 220.36L451.42 219.15L451.7 217.92L451.92 216.67L452.08 215.39L452.18 214.1L452.21 212.79L452.18 211.48L452.08 210.19L451.92 208.92L451.7 207.67L451.42 206.43L451.09 205.22L450.7 204.04L450.25 202.88L449.75 201.74L449.2 200.64L448.59 199.56L447.94 198.52L447.25 197.51L446.5 196.53L445.72 195.59L444.89 194.69L444.02 193.83L443.11 193.01L442.16 192.23L441.17 191.49L440.15 190.8L439.1 190.15L438.02 189.56L436.9 189.01L435.76 188.51L434.59 188.07L433.39 187.68L432.17 187.35L430.93 187.07L429.66 186.86L428.38 186.7L427.07 186.6L425.75 186.57L424.43 186.6L423.13 186.7Z" id="c34alHPwTT"></path></defs><g><g><g><use xlink:href="#c34alHPwTT" opacity="1" fill="#639ee7" fill-opacity="1"></use><g><use xlink:href="#c34alHPwTT" opacity="1" fill-opacity="0" stroke="#000000" stroke-width="1" stroke-opacity="0"></use></g></g></g></g></svg>