<?xml version="1.0" encoding="UTF-8" standalone="no"?>
<!DOCTYPE svg PUBLIC "-//W3C//DTD SVG 1.1//EN" "http://www.w3.org/Graphics/SVG/1.1/DTD/svg11.dtd">
<svg version="1.1" xmlns="http://www.w3.org/2000/svg" xmlns:xlink="http://www.w3.org/1999/xlink" preserveAspectRatio="xMidYMid meet" viewBox="0 0 640 640" width="640" height="640"><defs><path d="M140.14 25.59L140.78 25.65L141.4 25.72L142.03 25.82L142.64 25.94L143.25 26.09L143.85 26.25L144.44 26.43L145.03 26.63L145.61 26.86L146.18 27.1L146.73 27.36L147.28 27.64L147.82 27.93L148.35 28.25L148.87 28.58L149.37 28.93L149.87 29.29L150.35 29.68L150.82 30.07L151.28 30.49L151.72 30.92L152.15 31.36L152.56 31.82L152.96 32.3L153.35 32.79L153.72 33.29L154.07 33.8L154.41 34.33L154.73 34.87L155.03 35.43L155.32 35.99L155.58 36.57L155.83 37.16L156.06 37.76L156.27 38.37L156.46 38.99L156.64 39.62L156.79 40.26L169.9 100.69L617.27 100.69L617.7 100.7L618.13 100.71L618.56 100.74L618.98 100.78L619.41 100.82L619.83 100.88L620.25 100.94L620.67 101.02L621.09 101.1L621.5 101.2L621.91 101.3L622.32 101.42L622.73 101.54L623.13 101.68L623.52 101.82L623.92 101.97L624.31 102.13L624.7 102.3L625.08 102.48L625.46 102.67L625.83 102.86L626.2 103.07L626.57 103.28L626.93 103.5L627.28 103.74L627.63 103.98L627.98 104.22L628.32 104.48L628.65 104.74L628.98 105.01L629.3 105.29L629.62 105.58L629.93 105.88L630.24 106.18L630.54 106.49L630.83 106.81L631.11 107.14L631.39 107.47L631.66 107.81L631.93 108.16L632.18 108.52L632.43 108.88L632.67 109.25L632.9 109.62L633.12 109.99L633.33 110.37L633.53 110.75L633.72 111.14L633.91 111.53L634.08 111.93L634.25 112.33L634.4 112.73L634.55 113.13L634.69 113.54L634.81 113.95L634.93 114.36L635.04 114.78L635.14 115.2L635.23 115.62L635.31 116.04L635.38 116.46L635.44 116.89L635.5 117.32L635.54 117.75L635.57 118.17L635.6 118.61L635.61 119.04L635.61 119.47L635.61 119.9L635.59 120.33L635.57 120.77L635.54 121.2L635.49 121.63L635.44 122.06L635.37 122.49L635.3 122.92L635.22 123.35L635.12 123.78L635.02 124.21L634.91 124.64L561.49 387.66L561.31 388.26L561.12 388.85L560.91 389.43L560.68 390L560.43 390.56L560.17 391.11L559.89 391.65L559.59 392.18L559.28 392.69L558.95 393.2L558.61 393.69L558.25 394.16L557.88 394.63L557.5 395.08L557.1 395.52L556.69 395.95L556.26 396.36L555.83 396.75L555.38 397.14L554.92 397.5L554.45 397.85L553.96 398.19L553.47 398.51L552.97 398.82L552.46 399.11L551.93 399.38L551.4 399.63L550.86 399.87L550.32 400.09L549.76 400.3L549.2 400.48L548.63 400.65L548.05 400.8L547.47 400.93L546.88 401.04L546.28 401.13L545.68 401.2L545.08 401.25L544.47 401.28L543.85 401.29L212.27 401.29L211.52 401.31L210.77 401.35L210.03 401.43L209.3 401.54L208.58 401.67L207.87 401.84L207.17 402.03L206.48 402.25L205.81 402.5L205.14 402.77L204.49 403.07L203.85 403.39L203.23 403.74L202.62 404.11L202.02 404.5L201.45 404.92L200.89 405.36L200.34 405.82L199.81 406.3L199.31 406.8L198.82 407.32L198.35 407.85L197.9 408.41L197.47 408.99L197.06 409.58L196.68 410.19L196.31 410.81L195.97 411.45L195.66 412.1L195.37 412.77L195.1 413.45L194.86 414.14L194.64 414.85L194.46 415.57L194.3 416.29L194.16 417.03L194.06 417.78L193.98 418.54L193.94 419.3L193.92 420.08L193.94 420.85L193.98 421.62L194.06 422.37L194.16 423.12L194.3 423.86L194.46 424.59L194.64 425.31L194.86 426.01L195.1 426.71L195.37 427.39L195.66 428.05L195.97 428.71L196.31 429.35L196.68 429.97L197.06 430.58L197.47 431.17L197.9 431.74L198.35 432.3L198.82 432.84L199.31 433.36L199.81 433.86L200.34 434.34L200.89 434.8L201.45 435.24L202.02 435.65L202.62 436.05L203.23 436.42L203.85 436.77L204.49 437.09L205.14 437.39L205.81 437.66L206.48 437.91L207.17 438.13L207.87 438.32L208.58 438.48L209.3 438.62L210.03 438.73L210.77 438.8L211.52 438.85L212.27 438.86L543.85 438.86L544.61 438.88L545.36 438.93L546.1 439L546.83 439.11L547.56 439.25L548.27 439.41L548.97 439.6L549.66 439.82L550.34 440.07L551 440.34L551.65 440.64L552.29 440.96L552.92 441.31L553.53 441.68L554.12 442.07L554.7 442.49L555.26 442.93L555.8 443.38L556.33 443.86L556.84 444.36L557.32 444.88L557.79 445.42L558.24 445.98L558.67 446.55L559.07 447.14L559.46 447.75L559.82 448.38L560.16 449.02L560.48 449.67L560.77 450.34L561.03 451.02L561.27 451.71L561.49 452.42L561.67 453.13L561.83 453.86L561.97 454.6L562.07 455.35L562.15 456.11L562.19 456.88L562.21 457.65L562.19 458.43L562.15 459.19L562.07 459.95L561.97 460.7L561.83 461.44L561.67 462.17L561.49 462.89L561.27 463.59L561.03 464.29L560.77 464.97L560.48 465.64L560.16 466.29L559.82 466.93L559.46 467.55L559.07 468.16L558.67 468.75L558.24 469.33L557.79 469.88L557.32 470.42L556.84 470.94L556.33 471.44L555.8 471.92L555.26 472.38L554.7 472.82L554.12 473.23L553.53 473.63L552.92 474L552.29 474.34L551.65 474.67L551 474.96L550.34 475.24L549.66 475.48L548.97 475.7L548.27 475.89L547.56 476.06L546.83 476.19L546.1 476.3L545.36 476.38L544.61 476.42L543.85 476.44L212.27 476.44L210.01 476.39L207.76 476.25L205.55 476.02L203.36 475.7L201.19 475.29L199.06 474.8L196.96 474.22L194.89 473.56L192.86 472.82L190.86 472L188.91 471.11L186.99 470.14L185.12 469.1L183.29 467.98L181.51 466.8L179.78 465.55L178.09 464.23L176.46 462.85L174.88 461.41L173.36 459.91L171.89 458.35L170.49 456.74L169.14 455.07L167.85 453.34L166.63 451.57L165.48 449.74L164.39 447.87L163.37 445.96L162.42 444L161.55 441.99L160.75 439.95L160.03 437.87L159.38 435.76L158.82 433.61L158.34 431.42L157.94 429.21L157.62 426.96L157.4 424.69L157.26 422.4L157.22 420.08L157.24 418.35L157.32 416.63L157.44 414.93L157.62 413.25L157.84 411.57L158.11 409.92L158.43 408.28L158.8 406.66L159.21 405.05L159.66 403.47L160.16 401.91L160.7 400.36L161.28 398.84L161.91 397.34L162.58 395.86L163.28 394.4L164.03 392.97L164.82 391.56L165.64 390.18L166.5 388.83L167.4 387.5L168.33 386.2L169.3 384.93L170.3 383.69L171.34 382.47L172.41 381.29L173.51 380.14L174.64 379.03L175.8 377.94L177 376.89L178.22 375.88L179.47 374.89L180.75 373.95L182.05 373.04L183.38 372.17L184.74 371.34L186.12 370.55L187.53 369.79L188.96 369.08L190.41 368.41L124.13 63.12L27.52 63.12L26.76 63.1L26.02 63.06L25.28 62.98L24.54 62.87L23.82 62.74L23.11 62.57L22.41 62.38L21.72 62.16L21.04 61.92L20.38 61.64L19.72 61.35L19.09 61.02L18.46 60.68L17.85 60.31L17.26 59.91L16.68 59.5L16.12 59.06L15.58 58.6L15.05 58.12L14.54 57.62L14.05 57.1L13.58 56.56L13.14 56.01L12.71 55.43L12.3 54.84L11.92 54.23L11.56 53.61L11.22 52.97L10.9 52.32L10.61 51.65L10.34 50.97L10.1 50.27L9.89 49.57L9.7 48.85L9.54 48.12L9.41 47.38L9.3 46.63L9.23 45.87L9.18 45.11L9.17 44.33L9.18 43.56L9.23 42.79L9.3 42.03L9.41 41.28L9.54 40.54L9.7 39.81L9.89 39.1L10.1 38.39L10.34 37.7L10.61 37.02L10.9 36.35L11.22 35.7L11.56 35.06L11.92 34.43L12.3 33.82L12.71 33.23L13.14 32.66L13.58 32.1L14.05 31.56L14.54 31.04L15.05 30.54L15.58 30.06L16.12 29.61L16.68 29.17L17.26 28.75L17.85 28.36L18.46 27.99L19.09 27.64L19.72 27.32L20.38 27.02L21.04 26.75L21.72 26.5L22.41 26.28L23.11 26.09L23.82 25.93L24.54 25.79L25.28 25.68L26.02 25.61L26.76 25.56L27.52 25.54L138.86 25.54L139.51 25.56L140.14 25.59Z" id="p1jvvFLdNM"></path><path d="M253.49 476.63L255.71 476.86L257.9 477.18L260.07 477.59L262.2 478.08L264.3 478.66L266.37 479.32L268.4 480.06L270.39 480.87L272.35 481.77L274.27 482.74L276.14 483.78L277.97 484.89L279.75 486.08L281.48 487.33L283.16 488.64L284.8 490.02L286.37 491.46L287.9 492.97L289.36 494.53L290.77 496.14L292.12 497.81L293.41 499.54L294.63 501.31L295.78 503.13L296.87 505L297.89 506.92L298.84 508.88L299.71 510.88L300.51 512.92L301.23 515L301.88 517.12L302.44 519.27L302.92 521.46L303.32 523.67L303.63 525.91L303.86 528.18L304 530.48L304.04 532.8L304 535.12L303.86 537.42L303.63 539.69L303.32 541.93L302.92 544.15L302.44 546.33L301.88 548.48L301.23 550.6L300.51 552.68L299.71 554.72L298.84 556.72L297.89 558.68L296.87 560.6L295.78 562.47L294.63 564.29L293.41 566.07L292.12 567.79L290.77 569.46L289.36 571.08L287.9 572.64L286.37 574.14L284.8 575.58L283.16 576.96L281.48 578.27L279.75 579.52L277.97 580.71L276.14 581.82L274.27 582.86L272.35 583.83L270.39 584.73L268.4 585.54L266.37 586.28L264.3 586.94L262.2 587.52L260.07 588.01L257.9 588.42L255.71 588.74L253.49 588.97L251.25 589.11L248.98 589.16L246.72 589.11L244.47 588.97L242.26 588.74L240.06 588.42L237.9 588.01L235.77 587.52L233.67 586.94L231.6 586.28L229.57 585.54L227.57 584.73L225.62 583.83L223.7 582.86L221.83 581.82L220 580.71L218.22 579.52L216.49 578.27L214.8 576.96L213.17 575.58L211.59 574.14L210.07 572.64L208.6 571.08L207.19 569.46L205.84 567.79L204.56 566.07L203.34 564.29L202.18 562.47L201.09 560.6L200.08 558.68L199.13 556.72L198.25 554.72L197.46 552.68L196.73 550.6L196.09 548.48L195.52 546.33L195.04 544.15L194.64 541.93L194.33 539.69L194.1 537.42L193.97 535.12L193.92 532.8L193.97 530.48L194.1 528.18L194.33 525.91L194.64 523.67L195.04 521.46L195.52 519.27L196.09 517.12L196.73 515L197.46 512.92L198.25 510.88L199.13 508.88L200.08 506.92L201.09 505L202.18 503.13L203.34 501.31L204.56 499.54L205.84 497.81L207.19 496.14L208.6 494.53L210.07 492.97L211.59 491.46L213.17 490.02L214.8 488.64L216.49 487.33L218.22 486.08L220 484.89L221.83 483.78L223.7 482.74L225.62 481.77L227.57 480.87L229.57 480.06L231.6 479.32L233.67 478.66L235.77 478.08L237.9 477.59L240.06 477.18L242.26 476.86L244.47 476.63L246.72 476.49L248.98 476.44L251.25 476.49L253.49 476.63Z" id="a3PHm2tvK9"></path><path d="M511.66 476.63L513.88 476.86L516.07 477.18L518.23 477.59L520.36 478.08L522.47 478.66L524.53 479.32L526.57 480.06L528.56 480.87L530.52 481.77L532.43 482.74L534.3 483.78L536.13 484.89L537.91 486.08L539.65 487.33L541.33 488.64L542.96 490.02L544.54 491.46L546.06 492.97L547.53 494.53L548.94 496.14L550.29 497.81L551.57 499.54L552.79 501.31L553.95 503.13L555.03 505L556.05 506.92L557 508.88L557.87 510.88L558.67 512.92L559.4 515L560.04 517.12L560.6 519.27L561.09 521.46L561.48 523.67L561.8 525.91L562.02 528.18L562.16 530.48L562.21 532.8L562.16 535.12L562.02 537.42L561.8 539.69L561.48 541.93L561.09 544.15L560.6 546.33L560.04 548.48L559.4 550.6L558.67 552.68L557.87 554.72L557 556.72L556.05 558.68L555.03 560.6L553.95 562.47L552.79 564.29L551.57 566.07L550.29 567.79L548.94 569.46L547.53 571.08L546.06 572.64L544.54 574.14L542.96 575.58L541.33 576.96L539.65 578.27L537.91 579.52L536.13 580.71L534.3 581.82L532.43 582.86L530.52 583.83L528.56 584.73L526.57 585.54L524.53 586.28L522.47 586.94L520.36 587.52L518.23 588.01L516.07 588.42L513.88 588.74L511.66 588.97L509.41 589.11L507.15 589.16L504.88 589.11L502.64 588.97L500.42 588.74L498.23 588.42L496.07 588.01L493.93 587.52L491.83 586.94L489.76 586.28L487.73 585.54L485.74 584.73L483.78 583.83L481.87 582.86L480 581.82L478.17 580.71L476.39 579.52L474.65 578.27L472.97 576.96L471.34 575.58L469.76 574.14L468.23 572.64L466.77 571.08L465.36 569.46L464.01 567.79L462.73 566.07L461.51 564.29L460.35 562.47L459.26 560.6L458.24 558.68L457.3 556.72L456.42 554.72L455.62 552.68L454.9 550.6L454.26 548.48L453.69 546.33L453.21 544.15L452.81 541.93L452.5 539.69L452.27 537.42L452.14 535.12L452.09 532.8L452.14 530.48L452.27 528.18L452.5 525.91L452.81 523.67L453.21 521.46L453.69 519.27L454.26 517.12L454.9 515L455.62 512.92L456.42 510.88L457.3 508.88L458.24 506.92L459.26 505L460.35 503.13L461.51 501.31L462.73 499.54L464.01 497.81L465.36 496.14L466.77 494.53L468.23 492.97L469.76 491.46L471.34 490.02L472.97 488.64L474.65 487.33L476.39 486.08L478.17 484.89L480 483.78L481.87 482.74L483.78 481.77L485.74 480.87L487.73 480.06L489.76 479.32L491.83 478.66L493.93 478.08L496.07 477.59L498.23 477.18L500.42 476.86L502.64 476.63L504.88 476.49L507.15 476.44L509.41 476.49L511.66 476.63Z" id="a1QcnFmx5Y"></path></defs><g><g><g><use xlink:href="#p1jvvFLdNM" opacity="1" fill="#fd8d8c" fill-opacity="1"></use><g><use xlink:href="#p1jvvFLdNM" opacity="1" fill-opacity="0" stroke="#000000" stroke-width="1" stroke-opacity="0"></use></g></g><g><use xlink:href="#a3PHm2tvK9" opacity="1" fill="#fd8d8c" fill-opacity="1"></use><g><use xlink:href="#a3PHm2tvK9" opacity="1" fill-opacity="0" stroke="#000000" stroke-width="1" stroke-opacity="0"></use></g></g><g><use xlink:href="#a1QcnFmx5Y" opacity="1" fill="#fd8d8c" fill-opacity="1"></use><g><use xlink:href="#a1QcnFmx5Y" opacity="1" fill-opacity="0" stroke="#000000" stroke-width="1" stroke-opacity="0"></use></g></g></g></g></svg>