<?xml version="1.0" encoding="UTF-8" standalone="no"?>
<!DOCTYPE svg PUBLIC "-//W3C//DTD SVG 1.1//EN" "http://www.w3.org/Graphics/SVG/1.1/DTD/svg11.dtd">
<svg version="1.1" xmlns="http://www.w3.org/2000/svg" xmlns:xlink="http://www.w3.org/1999/xlink" preserveAspectRatio="xMidYMid meet" viewBox="0 0 640 640" width="640" height="640"><defs><path d="M575.57 186.7L576.37 186.78L577.16 186.88L577.93 187.02L578.7 187.18L579.46 187.37L580.2 187.59L580.93 187.83L581.65 188.1L582.35 188.39L583.04 188.71L583.71 189.05L584.37 189.42L585.01 189.81L585.63 190.22L586.24 190.65L586.82 191.1L587.39 191.58L587.94 192.07L588.46 192.58L588.97 193.11L589.45 193.66L589.91 194.23L590.35 194.81L590.77 195.41L591.16 196.03L591.52 196.66L591.86 197.3L592.18 197.96L592.46 198.63L592.72 199.32L592.95 200.02L593.15 200.72L593.33 201.44L593.47 202.17L593.58 202.91L593.66 203.66L593.71 204.41L593.73 205.18L593.73 427.64L593.71 428.41L593.66 429.16L593.58 429.91L593.47 430.65L593.33 431.38L593.15 432.1L592.95 432.8L592.72 433.5L592.46 434.19L592.18 434.86L591.86 435.52L591.52 436.16L591.16 436.79L590.77 437.41L590.35 438.01L589.91 438.59L589.45 439.16L588.97 439.71L588.46 440.24L587.94 440.75L587.39 441.24L586.82 441.72L586.24 442.17L585.63 442.6L585.01 443.01L584.37 443.4L583.71 443.77L583.04 444.11L582.35 444.43L581.65 444.72L580.93 444.99L580.2 445.24L579.46 445.45L578.7 445.64L577.93 445.8L577.16 445.94L576.37 446.04L575.57 446.12L574.76 446.16L573.95 446.18L167.45 446.18L46.27 316.41L167.45 186.64L573.95 186.64L574.76 186.66L575.57 186.7Z" id="a4xyRxqaTk"></path><path d="M174.87 316.41C174.87 296.17 191.19 279.74 211.28 279.74C231.38 279.74 247.69 296.17 247.69 316.41C247.69 336.65 231.38 353.08 211.28 353.08C191.19 353.08 174.87 336.65 174.87 316.41Z" id="cFyofmPAc"></path><path d="M318.72 316.41C318.72 296.17 335.03 279.74 355.13 279.74C375.23 279.74 391.54 296.17 391.54 316.41C391.54 336.65 375.23 353.08 355.13 353.08C335.03 353.08 318.72 336.65 318.72 316.41Z" id="b6BE83f7X1"></path><path d="M464.1 316.41C464.1 296.17 480.42 279.74 500.51 279.74C520.61 279.74 536.93 296.17 536.93 316.41C536.93 336.65 520.61 353.08 500.51 353.08C480.42 353.08 464.1 336.65 464.1 316.41Z" id="aqMMG4Y6"></path></defs><g><g><use xlink:href="#a4xyRxqaTk" opacity="1" fill="#818181" fill-opacity="1"></use><g><use xlink:href="#a4xyRxqaTk" opacity="1" fill-opacity="0" stroke="#000000" stroke-width="1" stroke-opacity="0"></use></g></g><g><use xlink:href="#cFyofmPAc" opacity="1" fill="#ffffff" fill-opacity="1"></use></g><g><use xlink:href="#b6BE83f7X1" opacity="1" fill="#ffffff" fill-opacity="1"></use></g><g><use xlink:href="#aqMMG4Y6" opacity="1" fill="#ffffff" fill-opacity="1"></use></g></g></svg>